<svg width="48" height="49" viewBox="0 0 48 49" fill="none" xmlns="http://www.w3.org/2000/svg">
<g id="Analyze" clip-path="url(#clip0_122_3472)">
<path id="Vector" d="M5.58091 0.0396729C5.12341 0.125923 4.79341 0.530923 4.80091 0.999673V42.2797C4.80091 42.8084 5.23216 43.2397 5.76091 43.2397H24.8109C26.8284 44.4472 29.1647 45.1597 31.6809 45.1597C35.0447 45.1597 38.1122 43.9072 40.4709 41.8597L46.6509 48.0397L48.0009 46.6897L41.8209 40.5097C43.8684 38.1509 45.1209 35.0834 45.1209 31.7197C45.1209 27.1634 42.8372 23.1434 39.3609 20.7097V0.999673C39.3609 0.470923 38.9297 0.0396729 38.4009 0.0396729H5.76091C5.73091 0.0396729 5.70091 0.0396729 5.67091 0.0396729C5.64091 0.0396729 5.61091 0.0396729 5.58091 0.0396729ZM6.72091 1.95967H37.4409V19.5997C35.6897 18.7634 33.7472 18.2797 31.6809 18.2797C28.5459 18.2797 25.6584 19.3559 23.3709 21.1597H13.4409V23.0797H21.3909C20.4384 24.2122 19.6809 25.5134 19.1409 26.9197H13.4409V28.8397H18.5709C18.3647 29.7697 18.2409 30.7259 18.2409 31.7197C18.2409 32.0459 18.2484 32.3609 18.2709 32.6797H13.4409V34.5997H18.5409C19.1072 37.1947 20.4309 39.5234 22.2609 41.3197H6.72091V1.95967ZM13.4409 9.63967V11.5597H31.6809V9.63967H13.4409ZM13.4409 15.3997V17.3197H31.6809V15.3997H13.4409ZM31.6809 20.1997C33.9572 20.1997 36.0759 20.8372 37.8609 21.9697C37.8909 21.9922 37.9209 22.0109 37.9509 22.0297C41.1159 24.0809 43.2009 27.6584 43.2009 31.7197C43.2009 38.0947 38.0559 43.2397 31.6809 43.2397C29.3672 43.2397 27.2147 42.5797 25.4109 41.4097C22.2459 39.3584 20.1609 35.7809 20.1609 31.7197C20.1609 25.3447 25.3059 20.1997 31.6809 20.1997ZM24.0009 25.9597C23.3297 26.8222 22.8497 27.7822 22.5609 28.8397H36.4809V25.9597H24.0009ZM22.2609 33.6397C22.4522 34.6972 22.8609 35.6572 23.3409 36.5197H36.4809V33.6397H22.2609Z" fill="#A49561"/>
</g>
<defs>
<clipPath id="clip0_122_3472">
<rect width="48" height="48" fill="white" transform="translate(0 0.0396729)"/>
</clipPath>
</defs>
</svg>
