<svg width="48" height="49" viewBox="0 0 48 49" fill="none" xmlns="http://www.w3.org/2000/svg">
<g id="Consultation">
<path id="Vector" d="M24.9592 0.999634C23.3805 0.999634 22.0792 2.30088 22.0792 3.87963V14.4396C22.0792 16.0184 23.3805 17.3196 24.9592 17.3196H27.0705C27.138 17.5896 27.1867 17.6759 27.2467 18.1596C27.3555 19.0221 27.318 20.0571 26.9805 20.7284C26.8305 21.0284 26.8492 21.3809 27.0217 21.6659C27.198 21.9471 27.5055 22.1196 27.8392 22.1196C29.8117 22.1196 31.1917 20.6159 32.103 19.3109C32.8042 18.3096 33.0217 17.7284 33.198 17.3196H41.2792C42.858 17.3196 44.1592 16.0184 44.1592 14.4396V3.87963C44.1592 2.30088 42.858 0.999634 41.2792 0.999634H24.9592ZM24.9592 2.91963H41.2792C41.823 2.91963 42.2392 3.33588 42.2392 3.87963V14.4396C42.2392 14.9834 41.823 15.3996 41.2792 15.3996H32.6392C32.2455 15.3996 31.893 15.6396 31.7505 16.0034C31.7505 16.0034 31.3005 17.1134 30.5355 18.2084C30.1417 18.7671 29.6805 19.2659 29.2042 19.6296C29.2492 19.0184 29.2155 18.4334 29.1517 17.9196C29.0205 16.8621 28.7505 16.0559 28.7505 16.0559C28.6192 15.6621 28.2517 15.3996 27.8392 15.3996H24.9592C24.4155 15.3996 23.9992 14.9834 23.9992 14.4396V3.87963C23.9992 3.33588 24.4155 2.91963 24.9592 2.91963ZM20.1592 4.83213C16.0605 4.83213 13.4017 6.67338 12.3217 9.45588C11.2942 12.0996 11.5717 15.4296 12.4192 18.9434C11.9655 19.4159 11.5192 20.0759 11.5155 21.1559C11.508 22.4271 11.943 23.4096 12.5205 24.0359C12.8505 24.3921 13.2067 24.4334 13.5555 24.5909C13.623 25.5546 13.788 26.5296 14.1367 27.3659C14.4517 28.1271 14.8905 28.6484 15.3555 29.1546C15.3555 30.3809 15.363 31.3296 15.3555 32.5296C14.9805 33.3359 14.208 33.9884 13.0342 34.6034C11.8155 35.2484 10.248 35.8259 8.67672 36.5496C7.10172 37.2734 5.50047 38.1584 4.22922 39.5084C2.95797 40.8584 2.05797 42.6996 1.91547 45.0996L1.85547 46.1234H40.383L40.323 45.0996C40.1805 42.6996 39.2805 40.8584 38.0055 39.5046C36.7305 38.1546 35.1292 37.2734 33.5505 36.5459C31.9717 35.8184 30.408 35.2446 29.1892 34.5996C28.0192 33.9846 27.2505 33.3321 26.883 32.5334C26.8717 31.2434 26.883 30.2909 26.883 29.0796C27.348 28.5884 27.7942 28.0784 28.098 27.4484C28.503 26.6084 28.803 25.8134 28.803 24.9996C28.803 24.4671 28.3717 24.0359 27.8392 24.0359C27.3067 24.0359 26.8755 24.4671 26.8755 24.9996C26.8755 25.1459 26.6805 25.9371 26.358 26.6121C26.0355 27.2871 25.5442 27.9209 25.3605 28.0559L24.9555 28.3446V28.8396C24.9555 30.2571 24.933 31.2359 24.9555 32.8146L24.9592 32.9946L25.023 33.1596C25.623 34.6409 26.8942 35.5746 28.2892 36.3096C29.6805 37.0409 31.263 37.6184 32.7442 38.3009C34.2255 38.9796 35.598 39.7671 36.5992 40.8284C37.4017 41.6796 37.9005 42.8009 38.1667 44.1959H4.07172C4.33422 42.8009 4.83672 41.6796 5.63172 40.8284C6.63297 39.7671 8.00172 38.9834 9.47922 38.3046C10.9605 37.6221 12.5392 37.0484 13.9342 36.3134C15.333 35.5784 16.6042 34.6446 17.2117 33.1634L17.2792 32.9946L17.283 32.8109C17.3017 31.3671 17.283 30.3809 17.283 28.9596V28.4721L16.8892 28.1834C16.7692 28.0934 16.2555 27.4334 15.918 26.6234C15.5842 25.8171 15.348 24.8421 15.363 24.0546L15.378 23.1546L14.478 23.0796C14.5455 23.0834 14.1855 22.9971 13.938 22.7271C13.6905 22.4571 13.4392 22.0221 13.443 21.1634C13.4505 20.3496 13.8217 20.1359 13.9455 20.0609L14.5492 19.6896L14.373 18.9996C13.4655 15.4821 13.293 12.2796 14.118 10.1534C14.9467 8.02713 16.578 6.76713 20.1592 6.76713C20.6917 6.76713 21.1267 6.33213 21.1267 5.79963C21.1267 5.26713 20.6917 4.83213 20.1592 4.83213ZM27.8392 5.79963V7.71963H34.5592V5.79963H27.8392ZM36.4792 5.79963V7.71963H39.3592V5.79963H36.4792ZM27.8392 10.5996V12.5196H30.7192V10.5996H27.8392ZM32.6392 10.5996V12.5196H39.3592V10.5996H32.6392Z" fill="#A49561"/>
</g>
</svg>
