<svg width="50" height="49" viewBox="0 0 50 49" fill="none" xmlns="http://www.w3.org/2000/svg">
<path id="Vector" d="M0.951172 0L26.8712 25.92L42.3212 10.47L31.9712 0H29.2712L34.8512 5.58C35.8112 6.54 35.5112 7.4775 35.0312 8.82C34.8399 9.3975 34.6412 9.8925 34.6412 10.47C34.6412 11.0475 34.9224 11.7187 35.2112 12.39C35.6912 13.4475 35.9837 14.3175 35.6012 14.7L29.7512 20.55C29.5599 20.7412 28.8737 20.4412 28.4912 20.25C28.0112 20.0588 27.5312 19.86 27.0512 19.86C26.6687 19.86 26.3012 20.0625 25.8212 20.16C24.8612 20.5425 24.3812 20.64 23.9012 20.16L6.71117 2.97C6.13367 2.3925 6.32867 2.01 6.71117 1.05C6.80867 0.6675 6.89117 0.3825 6.89117 0H4.97117C4.97117 0.0975005 4.88117 0.19875 4.88117 0.39C4.78367 0.4875 4.70867 0.76875 4.61117 0.96L3.65117 0H0.951172ZM16.0112 0C12.9399 3.36 12.7712 8.25 15.6512 11.13C16.9937 12.4725 18.8087 13.1625 20.6312 13.26C22.9337 13.26 25.1424 12.2887 26.8712 10.56C29.9424 7.48875 30.4299 3.07125 28.2212 0H25.5212C25.8099 0.0975005 26.0199 0.28875 26.2112 0.48C28.4199 2.68875 28.2024 6.52875 25.6112 9.12C24.2687 10.4625 22.4499 11.22 20.7212 11.22C19.2812 11.22 17.9312 10.65 16.9712 9.69C14.7624 7.48125 14.9799 3.64125 17.5712 1.05C18.0512 0.6675 18.5312 0.28875 19.0112 0H16.0112ZM6.05117 7.98L17.2712 25.92L21.4112 23.34L17.9312 19.86C17.7399 19.86 17.5524 19.8825 17.3612 19.98C16.3037 20.1712 15.8237 20.1712 15.4412 19.5L11.9912 14.01L6.05117 7.98ZM37.2512 8.07L39.6512 10.47L37.3412 12.78C37.1499 12.3 36.9587 11.9025 36.8612 11.52C36.6699 11.1375 36.4712 10.5675 36.4712 10.47C36.4712 10.3725 36.6737 9.88875 36.7712 9.6C36.9624 9.2175 37.1537 8.6475 37.2512 8.07ZM29.6912 10.95C28.8999 10.95 28.1087 11.2425 27.5312 11.82C26.9537 12.3975 26.6912 13.1512 26.6912 13.92C26.7887 14.7825 27.0737 15.5625 27.6512 16.14C28.2287 16.7175 28.9824 16.98 29.7512 16.98C30.5199 16.98 31.2737 16.7175 31.8512 16.14C33.0024 14.9887 33.0024 13.0687 31.8512 11.82C31.2737 11.2425 30.4824 10.95 29.6912 10.95ZM29.7512 12.87C30.0399 12.87 30.3399 12.9487 30.5312 13.14C31.0112 13.62 31.0112 14.31 30.5312 14.79C30.1487 15.1725 29.3612 15.1725 28.8812 14.79C28.6899 14.5988 28.6112 14.2987 28.6112 14.01C28.7087 13.6275 28.7799 13.3312 28.9712 13.14C29.1624 12.9487 29.4624 12.87 29.7512 12.87ZM18.2312 21.69C18.3287 21.69 18.6099 21.9825 18.8012 22.08C18.8987 22.1775 19.0937 22.2825 19.1912 22.38L17.8412 23.13L17.0912 21.9C17.3799 21.9 17.5599 21.78 17.7512 21.78C17.9424 21.78 18.2312 21.69 18.2312 21.69ZM26.7812 21.69C26.8787 21.69 27.2499 21.8925 27.4412 21.99C27.5387 22.0875 27.7299 22.0725 27.9212 22.17L26.8712 23.22L25.7312 22.08C25.9224 21.9825 26.2037 21.9 26.3012 21.9C26.4924 21.8025 26.6837 21.69 26.7812 21.69ZM14.7512 26.85C14.0649 26.9025 13.3449 27.135 12.8312 27.75C12.6549 27.9637 12.5874 28.23 12.5012 28.5C11.3012 27.9675 10.0674 27.6787 9.02117 27.87C9.00992 27.87 9.00242 27.87 8.99117 27.87C8.17742 28.0575 7.45367 28.5413 7.13117 29.25C7.04492 29.4375 7.13867 29.655 7.10117 29.85C6.03992 29.3962 5.05367 29.1075 4.25117 29.13C3.11492 29.16 2.23367 29.6812 1.73117 30.33C1.07492 31.1812 0.928672 32.3175 1.34117 33.27C1.74617 34.2113 2.54867 35.0213 3.62117 35.79C3.62492 35.7938 3.64742 35.8162 3.65117 35.82C4.05992 36.1312 5.00117 36.7725 6.35117 37.68C7.71617 38.5988 9.44492 39.7425 11.1812 40.89C14.6537 43.185 18.1374 45.48 19.0712 46.05C19.0824 46.05 19.0899 46.05 19.1012 46.05C20.0274 46.5788 21.0662 47.4113 22.5212 47.82C23.9762 48.2287 25.7799 48.12 28.0412 47.04C28.0524 47.04 28.0599 47.04 28.0712 47.04C29.4624 46.3425 34.9187 43.47 36.7412 42.51C37.5924 42.0637 38.0499 41.925 38.3912 41.94C38.7324 41.955 39.1037 42.1237 39.7712 42.57L42.3812 44.28C42.6624 44.52 43.0599 44.58 43.3974 44.4263C43.7387 44.2725 43.9599 43.9387 43.9637 43.5675C43.9712 43.1962 43.7649 42.855 43.4312 42.69L40.8512 40.95C40.0787 40.4363 39.3399 40.0537 38.4812 40.02C37.6224 39.9863 36.8124 40.2863 35.8412 40.8C34.0262 41.7562 28.5549 44.6362 27.2312 45.3C25.2699 46.2375 24.0474 46.245 23.0312 45.96C22.0149 45.675 21.1487 44.9925 20.0612 44.37V44.4C19.2662 43.9125 15.6962 41.5912 12.2312 39.3C10.4987 38.1562 8.79242 37.005 7.43117 36.09C6.06992 35.175 5.01617 34.4625 4.79117 34.29C4.77992 34.2788 4.77242 34.2712 4.76117 34.26C3.83492 33.6 3.29867 32.9588 3.11117 32.52C2.92367 32.0812 2.95742 31.8975 3.26117 31.5C3.42992 31.29 3.68492 31.0687 4.31117 31.05C4.86617 31.035 5.75867 31.2525 6.95117 31.86C7.02617 31.9575 7.11617 32.0362 7.22117 32.1L15.9812 37.95C16.0524 38.01 16.1349 38.0625 16.2212 38.1C16.4162 38.3062 16.6112 38.4937 16.8512 38.64C17.7474 39.1763 18.8499 39.36 20.1512 39.36H25.7312C28.5587 39.36 31.9412 38.37 31.9412 38.37C32.4549 38.22 32.7512 37.6837 32.6012 37.17C32.4512 36.6562 31.9149 36.36 31.4012 36.51C31.4012 36.51 28.0862 37.44 25.7312 37.44H20.1512C19.0524 37.44 18.2349 37.245 17.8112 36.99C17.3874 36.735 17.2712 36.5325 17.2712 36C17.2712 35.5125 17.3949 35.3025 17.8112 35.04C18.2274 34.7775 19.0149 34.56 20.1512 34.56C21.4637 34.56 23.1587 34.2675 24.7412 33.87C24.7599 33.8662 24.7824 33.8737 24.8012 33.87C25.0449 33.9 25.2924 33.8363 25.4912 33.69C26.7549 33.345 27.8462 32.94 28.5812 32.52C28.5999 32.5125 28.6224 32.5012 28.6412 32.49C30.8012 31.14 30.6399 28.8 36.0812 28.8C38.5299 28.8 39.2237 29.2762 40.7312 29.88C43.1274 30.8025 47.6612 33.03 47.6612 33.03C48.1412 33.2625 48.7187 33.06 48.9512 32.58C49.1837 32.1 48.9812 31.5225 48.5012 31.29C48.5012 31.29 44.0162 29.1075 41.4212 28.11C40.0487 27.5625 38.8149 26.88 36.0812 26.88C30.0399 26.88 28.5624 30.2362 27.6512 30.84C27.6437 30.8438 27.6287 30.8662 27.6212 30.87C27.2237 31.0912 26.1887 31.4662 25.0112 31.8C24.4149 31.4137 20.1399 28.65 18.5912 27.78C17.5524 27.2025 16.1237 26.7412 14.7512 26.85ZM14.9012 28.77C15.6624 28.71 16.9712 29.0775 17.6612 29.46V29.43C18.5912 29.9512 20.7399 31.3312 22.4012 32.4C21.5349 32.55 20.7324 32.64 20.1512 32.64C19.6637 32.64 19.2249 32.6662 18.8012 32.73L14.2712 29.64C14.1774 29.16 14.2487 29.0437 14.3012 28.98C14.3574 28.9125 14.5187 28.8 14.9012 28.77ZM9.38117 29.73C9.38867 29.73 9.40367 29.73 9.41117 29.73C9.98492 29.6362 11.1287 29.8425 12.2312 30.42C12.3062 30.5925 12.4337 30.7388 12.5912 30.84L16.6112 33.57C16.0374 33.9975 15.6099 34.59 15.4412 35.28L8.87117 30.9C8.79992 30.4688 8.81867 30.1725 8.87117 30.06C8.92742 29.9362 8.99492 29.8237 9.38117 29.73Z" fill="#A49561"/>
</svg>
