<svg width="48" height="49" viewBox="0 0 48 49" fill="none" xmlns="http://www.w3.org/2000/svg">
<g id="Helping Hand" clip-path="url(#clip0_122_3467)">
<path id="Vector" d="M30.5691 0.0396702C30.3291 0.0809203 30.1153 0.20842 29.9691 0.39967L27.0891 3.99967C26.6316 4.57342 25.9566 4.94467 25.2291 5.04967L24.9591 5.10967C21.5616 5.59342 18.6741 7.86217 17.3991 11.0497L16.7991 12.5197H15.5691C13.3228 12.5197 11.2041 13.6522 9.95909 15.5197L6.02909 21.4297L0.419092 25.1497C0.0890917 25.3747 -0.0646584 25.7834 0.0290917 26.1697L3.86909 43.4497C3.96659 43.8847 4.35284 44.1959 4.79909 44.1997H9.74909C10.1766 45.8497 11.6616 47.0797 13.4391 47.0797C14.5903 47.0797 15.6141 46.5434 16.3191 45.7297C17.0241 46.5434 18.0478 47.0797 19.1991 47.0797C20.3503 47.0797 21.3741 46.5434 22.0791 45.7297C22.7841 46.5434 23.8078 47.0797 24.9591 47.0797C26.1103 47.0797 27.1341 46.5434 27.8391 45.7297C28.5441 46.5434 29.5678 47.0797 30.7191 47.0797C32.4966 47.0797 33.9816 45.8497 34.4091 44.1997H38.8791C41.1103 44.1997 43.0078 42.4634 43.1991 40.2397C43.3116 38.9422 42.8128 37.7422 41.9691 36.8797C43.1428 36.2009 43.9866 35.0084 44.1291 33.5797C44.2603 32.2672 43.7728 31.0372 42.9291 30.1597C44.0916 29.4847 44.9391 28.3034 45.0891 26.8897C45.2316 25.5622 44.7478 24.3247 43.8891 23.4397C45.0628 22.7684 45.8991 21.5947 46.0491 20.1697C46.2403 18.3322 45.2166 16.6634 43.6791 15.8797L47.8491 9.18967C47.9953 8.95717 48.0366 8.67592 47.9653 8.41342C47.8903 8.14717 47.7066 7.92967 47.4591 7.80967L31.1391 0.12967C30.9628 0.0434202 30.7641 0.00967021 30.5691 0.0396702ZM30.9891 2.19967L45.6591 9.09967L41.6991 15.3997H24.5991C24.2053 15.3959 23.8453 15.6322 23.6991 15.9997L20.4291 24.1897C19.8328 25.6784 18.1678 26.3759 16.6791 25.7797C15.1903 25.1834 14.4928 23.5184 15.0891 22.0297L19.1991 11.7397C20.2191 9.18967 22.5103 7.38967 25.2291 6.99967L25.4991 6.96967C26.7066 6.79717 27.8278 6.15217 28.5891 5.19967L30.9891 2.19967ZM15.5691 14.4397H16.0491L13.2891 21.3397C12.3066 23.7922 13.5103 26.5972 15.9591 27.5797C18.4116 28.5622 21.2166 27.3284 22.1991 24.8797L25.2291 17.3197H41.7591C43.1991 17.3197 44.3091 18.5272 44.1591 19.9597C44.0316 21.1897 42.9966 22.1197 41.7591 22.1197H40.3191C40.2891 22.1197 40.2591 22.1197 40.2291 22.1197C40.1691 22.1234 40.1091 22.1347 40.0491 22.1497C40.0191 22.1572 39.9891 22.1684 39.9591 22.1797C39.8391 22.2172 39.7266 22.2772 39.6291 22.3597C39.6291 22.3709 39.6291 22.3784 39.6291 22.3897C39.5841 22.4272 39.5466 22.4647 39.5091 22.5097C39.5091 22.5209 39.5091 22.5284 39.5091 22.5397C39.4866 22.5584 39.4678 22.5772 39.4491 22.5997C39.4491 22.6109 39.4491 22.6184 39.4491 22.6297C39.3253 22.8472 39.2953 23.1059 39.3591 23.3497C39.3703 23.3609 39.3778 23.3684 39.3891 23.3797C39.3891 23.3984 39.3891 23.4209 39.3891 23.4397C39.4003 23.4509 39.4078 23.4584 39.4191 23.4697C39.4378 23.5109 39.4566 23.5522 39.4791 23.5897C39.4903 23.6009 39.4978 23.6084 39.5091 23.6197C39.5166 23.6384 39.5278 23.6609 39.5391 23.6797C39.5503 23.6909 39.5578 23.6984 39.5691 23.7097C39.6366 23.7922 39.7191 23.8634 39.8091 23.9197C39.8278 23.9309 39.8503 23.9422 39.8691 23.9497C39.8803 23.9609 39.8878 23.9684 39.8991 23.9797C39.9178 23.9797 39.9403 23.9797 39.9591 23.9797C39.9703 23.9909 39.9778 23.9984 39.9891 24.0097C40.0078 24.0097 40.0303 24.0097 40.0491 24.0097C40.0603 24.0097 40.0678 24.0097 40.0791 24.0097C40.1391 24.0247 40.1991 24.0359 40.2591 24.0397C40.2703 24.0397 40.2778 24.0397 40.2891 24.0397C40.3003 24.0397 40.3078 24.0397 40.3191 24.0397H40.7991C42.2391 24.0397 43.3191 25.2472 43.1691 26.6797C43.0378 27.9097 42.0328 28.8397 40.7991 28.8397H39.3591C39.3291 28.8397 39.2991 28.8397 39.2691 28.8397C39.2091 28.8434 39.1491 28.8547 39.0891 28.8697C39.0591 28.8772 39.0291 28.8884 38.9991 28.8997C38.8791 28.9372 38.7666 28.9972 38.6691 29.0797C38.6691 29.0909 38.6691 29.0984 38.6691 29.1097C38.6241 29.1472 38.5866 29.1847 38.5491 29.2297C38.5491 29.2409 38.5491 29.2484 38.5491 29.2597C38.5266 29.2784 38.5078 29.2972 38.4891 29.3197C38.4891 29.3309 38.4891 29.3384 38.4891 29.3497C38.3653 29.5672 38.3353 29.8259 38.3991 30.0697C38.4103 30.0809 38.4178 30.0884 38.4291 30.0997C38.4291 30.1184 38.4291 30.1409 38.4291 30.1597C38.4403 30.1709 38.4478 30.1784 38.4591 30.1897C38.4778 30.2309 38.4966 30.2722 38.5191 30.3097C38.5303 30.3209 38.5378 30.3284 38.5491 30.3397C38.5566 30.3584 38.5678 30.3809 38.5791 30.3997C38.5903 30.4109 38.5978 30.4184 38.6091 30.4297C38.6766 30.5122 38.7591 30.5834 38.8491 30.6397C38.8678 30.6509 38.8903 30.6622 38.9091 30.6697C38.9203 30.6809 38.9278 30.6884 38.9391 30.6997C38.9578 30.6997 38.9803 30.6997 38.9991 30.6997C39.0103 30.7109 39.0178 30.7184 39.0291 30.7297C39.0478 30.7297 39.0703 30.7297 39.0891 30.7297C39.1003 30.7297 39.1078 30.7297 39.1191 30.7297C39.1791 30.7447 39.2391 30.7559 39.2991 30.7597C39.3103 30.7597 39.3178 30.7597 39.3291 30.7597C39.3403 30.7597 39.3478 30.7597 39.3591 30.7597H39.8391C41.2753 30.7597 42.3516 31.9709 42.2091 33.3997C42.0853 34.6334 41.0803 35.5597 39.8391 35.5597H38.1291C38.0991 35.5597 38.0691 35.5597 38.0391 35.5597C37.5103 35.5859 37.0978 36.0359 37.1241 36.5647C37.1503 37.0934 37.6003 37.5059 38.1291 37.4797H38.8791C40.3003 37.4797 41.4028 38.6722 41.2791 40.0897C41.1703 41.3384 40.1316 42.2797 38.8791 42.2797H34.5591V41.3197C34.5591 39.2084 32.8303 37.4797 30.7191 37.4797C29.5678 37.4797 28.5441 38.0159 27.8391 38.8297C27.1341 38.0159 26.1103 37.4797 24.9591 37.4797C23.8078 37.4797 22.7841 38.0159 22.0791 38.8297C21.3741 38.0159 20.3503 37.4797 19.1991 37.4797C18.0478 37.4797 17.0241 38.0159 16.3191 38.8297C15.6141 38.0159 14.5903 37.4797 13.4391 37.4797C11.3278 37.4797 9.59909 39.2084 9.59909 41.3197V42.2797H5.54909L2.03909 26.4097L7.25909 22.9297C7.36784 22.8584 7.45784 22.7684 7.52909 22.6597L11.5791 16.5697C12.4678 15.2347 13.9641 14.4397 15.5691 14.4397ZM13.4391 39.3997C14.5116 39.3997 15.3591 40.2472 15.3591 41.3197V43.2397C15.3591 44.3122 14.5116 45.1597 13.4391 45.1597C12.4303 45.1597 11.6091 44.4022 11.5191 43.4197C11.5453 43.2922 11.5453 43.1572 11.5191 43.0297V41.3197C11.5191 40.2472 12.3666 39.3997 13.4391 39.3997ZM19.1991 39.3997C20.2716 39.3997 21.1191 40.2472 21.1191 41.3197V43.2397C21.1191 44.3122 20.2716 45.1597 19.1991 45.1597C18.1266 45.1597 17.2791 44.3122 17.2791 43.2397V41.3197C17.2791 40.2472 18.1266 39.3997 19.1991 39.3997ZM24.9591 39.3997C26.0316 39.3997 26.8791 40.2472 26.8791 41.3197V43.2397C26.8791 44.3122 26.0316 45.1597 24.9591 45.1597C23.8866 45.1597 23.0391 44.3122 23.0391 43.2397V41.3197C23.0391 40.2472 23.8866 39.3997 24.9591 39.3997ZM30.7191 39.3997C31.7916 39.3997 32.6391 40.2472 32.6391 41.3197V43.0597C32.6391 43.0897 32.6391 43.1197 32.6391 43.1497V43.2397C32.6316 43.3109 32.6316 43.3784 32.6391 43.4497C32.5341 44.4209 31.7203 45.1597 30.7191 45.1597C29.6466 45.1597 28.7991 44.3122 28.7991 43.2397V41.3197C28.7991 40.2472 29.6466 39.3997 30.7191 39.3997Z" fill="#A49561"/>
</g>
<defs>
<clipPath id="clip0_122_3467">
<rect width="48" height="48" fill="white" transform="translate(0 0.0396729)"/>
</clipPath>
</defs>
</svg>
