<svg width="48" height="49" viewBox="0 0 48 49" fill="none" xmlns="http://www.w3.org/2000/svg">
<g id="Teamwork">
<path id="Vector" d="M23.9998 1.95966C19.7696 1.95966 16.3198 5.40948 16.3198 9.63966C16.3198 12.0841 17.4338 13.8633 18.4254 15.2159C19.417 16.5685 20.1598 17.532 20.1598 18.2797V20.1997C20.1598 21.5155 21.0675 22.6275 22.2823 22.9653C22.5954 23.6002 23.2437 24.0397 23.9998 24.0397C24.7559 24.0397 25.4042 23.6002 25.7173 22.9653C26.9321 22.6275 27.8398 21.5155 27.8398 20.1997V18.2797C27.8398 17.5624 28.584 16.5897 29.5761 15.2309C30.5682 13.8721 31.6798 12.0841 31.6798 9.63966C31.6798 5.40948 28.23 1.95966 23.9998 1.95966ZM23.9998 3.87966C27.1923 3.87966 29.7598 6.44712 29.7598 9.63966C29.7598 11.5152 28.9515 12.8275 28.0236 14.0984C27.2792 15.1179 26.3851 16.0877 26.0567 17.3197H21.9448C21.6177 16.0748 20.7205 15.0976 19.9742 14.0797C19.0458 12.8133 18.2398 11.5152 18.2398 9.63966C18.2398 6.44712 20.8073 3.87966 23.9998 3.87966ZM22.0798 19.2397H25.9198V20.1997C25.9198 20.7421 25.5022 21.1597 24.9598 21.1597H23.0398C22.4974 21.1597 22.0798 20.7421 22.0798 20.1997V19.2397ZM13.4698 22.1197C11.3907 22.1197 9.70565 22.6402 8.5198 23.6328C7.33396 24.6254 6.7198 26.0831 6.7198 27.6397C6.7198 28.2425 6.85873 28.8563 6.98605 29.3815C7.0444 29.6222 7.0579 29.6475 7.10418 29.8128C6.89 30.1553 6.7198 30.6277 6.7198 31.2397C6.7198 31.9997 6.92478 32.6521 7.36105 33.0884C7.55646 33.2838 7.76719 33.2509 7.9873 33.3359C8.11369 33.8465 8.24285 34.3663 8.4673 34.7872C8.62215 35.0775 8.78791 35.3385 8.96418 35.5653C9.00471 35.6174 9.07994 35.6566 9.1198 35.7059V37.1947C8.98737 37.4807 8.71418 37.7579 8.14293 38.0609C7.53448 38.3836 6.69876 38.6914 5.82918 39.094C4.95959 39.4966 4.04088 40.0006 3.2923 40.8059C2.54372 41.6112 2.00816 42.7343 1.92168 44.1415C1.91376 44.2722 1.93267 44.4032 1.97724 44.5263C2.02181 44.6495 2.09109 44.7622 2.18084 44.8575C2.27058 44.9529 2.37889 45.0289 2.49909 45.0809C2.61929 45.1328 2.74885 45.1596 2.8798 45.1597H23.0398H25.9198H45.1198C45.2508 45.1596 45.3803 45.1328 45.5005 45.0809C45.6207 45.0289 45.729 44.9529 45.8188 44.8575C45.9085 44.7622 45.9778 44.6495 46.0224 44.5263C46.0669 44.4032 46.0858 44.2722 46.0779 44.1415C45.9895 42.7028 45.3594 41.5558 44.5104 40.759C43.6614 39.9623 42.6329 39.4735 41.6473 39.0753C40.6617 38.677 39.705 38.3669 39.0054 38.0384C38.3449 37.7282 38.0389 37.437 37.9198 37.189V35.704C37.9596 35.6548 38.0349 35.6155 38.0754 35.5634C38.2514 35.3368 38.4156 35.0774 38.5704 34.7872C38.7948 34.3664 38.9257 33.8464 39.0523 33.3359C39.2724 33.2509 39.4832 33.2838 39.6786 33.0884C40.1148 32.6521 40.3198 31.9997 40.3198 31.2397C40.3198 30.6277 40.1496 30.1553 39.9354 29.8128C39.9817 29.6475 39.9952 29.6222 40.0536 29.3815C40.1809 28.8563 40.3198 28.2425 40.3198 27.6397C40.3198 26.6258 40.0594 25.5346 39.3804 24.6322C38.8137 23.8789 37.863 23.3944 36.7517 23.224L36.3748 22.5903C36.2899 22.447 36.1692 22.3283 36.0246 22.2458C35.8799 22.1633 35.7163 22.1198 35.5498 22.1197C33.4707 22.1197 31.7857 22.6402 30.5998 23.6328C29.414 24.6254 28.7998 26.0831 28.7998 27.6397C28.7998 28.2425 28.9387 28.8563 29.0661 29.3815C29.1244 29.6222 29.1379 29.6475 29.1842 29.8128C28.97 30.1553 28.7998 30.6277 28.7998 31.2397C28.7998 31.9997 29.0048 32.6521 29.4411 33.0884C29.6365 33.2838 29.8472 33.2509 30.0673 33.3359C30.1937 33.8465 30.3228 34.3663 30.5473 34.7872C30.7022 35.0775 30.8679 35.3385 31.0442 35.5653C31.0847 35.6174 31.1599 35.6566 31.1998 35.7059V37.1947C31.0674 37.4807 30.7942 37.7579 30.2229 38.0609C29.6145 38.3836 28.7788 38.6914 27.9092 39.094C27.0396 39.4966 26.1209 40.0006 25.3723 40.8059C24.6237 41.6112 24.0882 42.7343 24.0017 44.1415C24.0009 44.1515 24.0003 44.1615 23.9998 44.1715C23.9993 44.1615 23.9987 44.1515 23.9979 44.1415C23.9095 42.7028 23.2794 41.5558 22.4304 40.759C21.5814 39.9623 20.5529 39.4735 19.5673 39.0753C18.5817 38.677 17.625 38.3669 16.9254 38.0384C16.2649 37.7282 15.9589 37.437 15.8398 37.189V35.704C15.8796 35.6548 15.9549 35.6155 15.9954 35.5634C16.1714 35.3368 16.3356 35.0774 16.4904 34.7872C16.7148 34.3664 16.8457 33.8464 16.9723 33.3359C17.1924 33.2509 17.4032 33.2838 17.5986 33.0884C18.0348 32.6521 18.2398 31.9997 18.2398 31.2397C18.2398 30.6277 18.0696 30.1553 17.8554 29.8128C17.9017 29.6475 17.9152 29.6222 17.9736 29.3815C18.1009 28.8563 18.2398 28.2425 18.2398 27.6397C18.2398 26.6258 17.9794 25.5346 17.3004 24.6322C16.7337 23.8789 15.783 23.3944 14.6717 23.224L14.2948 22.5903C14.2099 22.447 14.0892 22.3283 13.9446 22.2458C13.7999 22.1633 13.6363 22.1198 13.4698 22.1197ZM12.9636 24.1072L13.2148 24.529C13.2997 24.6723 13.4204 24.791 13.565 24.8735C13.7097 24.956 13.8733 24.9995 14.0398 24.9997C14.9393 24.9997 15.4055 25.3096 15.7648 25.7872C16.1241 26.2647 16.3198 26.9736 16.3198 27.6397C16.3198 27.8768 16.2187 28.463 16.1061 28.9278C15.9934 29.3926 15.8829 29.7565 15.8829 29.7565C15.8238 29.9491 15.8268 30.1554 15.8914 30.3462C15.956 30.537 16.079 30.7026 16.2429 30.8197C16.2555 30.8382 16.3198 30.9253 16.3198 31.2397C16.3198 31.6797 16.2248 31.7472 16.2411 31.7309C16.2573 31.7146 16.2798 31.7197 16.1998 31.7197C15.9634 31.7196 15.7352 31.8069 15.5591 31.9647C15.383 32.1224 15.2713 32.3396 15.2454 32.5747C15.2055 32.9374 15.0179 33.4698 14.7973 33.8834C14.687 34.0902 14.5685 34.2701 14.4786 34.3859C14.3886 34.5017 14.279 34.5479 14.4411 34.4647C14.2839 34.5454 14.1521 34.668 14.0601 34.8188C13.9682 34.9697 13.9196 35.143 13.9198 35.3197V37.4797C13.9201 37.5963 13.9417 37.712 13.9836 37.8209C14.3645 38.8201 15.2343 39.3663 16.1079 39.7765C16.9816 40.1868 17.9497 40.492 18.8473 40.8547C19.7449 41.2173 20.5567 41.6347 21.1161 42.1597C21.4421 42.4657 21.6696 42.8242 21.8361 43.2397H4.24668C4.39604 42.8705 4.44645 42.384 4.69855 42.1128C5.17847 41.5965 5.86173 41.1941 6.63543 40.8359C7.40912 40.4777 8.25823 40.1721 9.04293 39.7559C9.82762 39.3398 10.6145 38.7705 10.9761 37.8209C11.0179 37.712 11.0395 37.5963 11.0398 37.4797V35.3197C11.0398 35.1428 10.991 34.9693 10.8987 34.8185C10.8064 34.6676 10.6742 34.5452 10.5167 34.4647C10.6786 34.5476 10.5691 34.5016 10.4792 34.3859C10.3893 34.2702 10.2725 34.0901 10.1623 33.8834C9.94183 33.47 9.75373 32.937 9.71418 32.5747C9.68829 32.3396 9.5766 32.1224 9.40049 31.9647C9.22438 31.8069 8.99625 31.7196 8.7598 31.7197C8.6798 31.7197 8.70228 31.7147 8.71855 31.7309C8.73483 31.7472 8.6398 31.6797 8.6398 31.2397C8.6398 30.9253 8.70414 30.8382 8.71668 30.8197C8.88063 30.7026 9.00361 30.537 9.06822 30.3462C9.13282 30.1554 9.13578 29.9491 9.07668 29.7565C9.07668 29.7565 8.96623 29.3926 8.85355 28.9278C8.74088 28.463 8.6398 27.8768 8.6398 27.6397C8.6398 26.5562 9.00216 25.7339 9.75168 25.1065C10.4164 24.5501 11.5129 24.1924 12.9636 24.1072ZM35.0436 24.1072L35.2948 24.529C35.3797 24.6723 35.5004 24.791 35.645 24.8735C35.7897 24.956 35.9533 24.9995 36.1198 24.9997C37.0193 24.9997 37.4855 25.3096 37.8448 25.7872C38.2041 26.2647 38.3998 26.9736 38.3998 27.6397C38.3998 27.8768 38.2987 28.463 38.1861 28.9278C38.0734 29.3926 37.9629 29.7565 37.9629 29.7565C37.9038 29.9491 37.9068 30.1554 37.9714 30.3462C38.036 30.537 38.159 30.7026 38.3229 30.8197C38.3355 30.8382 38.3998 30.9253 38.3998 31.2397C38.3998 31.6797 38.3048 31.7472 38.3211 31.7309C38.3373 31.7146 38.3598 31.7197 38.2798 31.7197C38.0434 31.7196 37.8152 31.8069 37.6391 31.9647C37.463 32.1224 37.3513 32.3396 37.3254 32.5747C37.2855 32.9374 37.0979 33.4698 36.8773 33.8834C36.767 34.0902 36.6485 34.2701 36.5586 34.3859C36.4686 34.5017 36.359 34.5479 36.5211 34.4647C36.3639 34.5454 36.2321 34.668 36.1401 34.8188C36.0482 34.9697 35.9996 35.143 35.9998 35.3197V37.4797C36.0001 37.5963 36.0217 37.712 36.0636 37.8209C36.4445 38.8201 37.3143 39.3663 38.1879 39.7765C39.0616 40.1868 40.0297 40.492 40.9273 40.8547C41.8249 41.2173 42.6367 41.6347 43.1961 42.1597C43.5221 42.4657 43.7496 42.8242 43.9161 43.2397H26.3267C26.476 42.8705 26.5264 42.384 26.7786 42.1128C27.2585 41.5965 27.9417 41.1941 28.7154 40.8359C29.4891 40.4777 30.3382 40.1721 31.1229 39.7559C31.9076 39.3398 32.6945 38.7705 33.0561 37.8209C33.0979 37.712 33.1195 37.5963 33.1198 37.4797V35.3197C33.1198 35.1428 33.071 34.9693 32.9787 34.8185C32.8864 34.6676 32.7542 34.5452 32.5967 34.4647C32.7586 34.5476 32.6491 34.5016 32.5592 34.3859C32.4693 34.2702 32.3525 34.0901 32.2423 33.8834C32.0218 33.47 31.8337 32.937 31.7942 32.5747C31.7683 32.3396 31.6566 32.1224 31.4805 31.9647C31.3044 31.8069 31.0762 31.7196 30.8398 31.7197C30.7598 31.7197 30.7823 31.7147 30.7986 31.7309C30.8148 31.7472 30.7198 31.6797 30.7198 31.2397C30.7198 30.9253 30.7841 30.8382 30.7967 30.8197C30.9606 30.7026 31.0836 30.537 31.1482 30.3462C31.2128 30.1554 31.2158 29.9491 31.1567 29.7565C31.1567 29.7565 31.0462 29.3926 30.9336 28.9278C30.8209 28.463 30.7198 27.8768 30.7198 27.6397C30.7198 26.5562 31.0822 25.7339 31.8317 25.1065C32.4964 24.5501 33.5929 24.1924 35.0436 24.1072Z" fill="#A49561"/>
</g>
</svg>
