<svg width="49" height="48" viewBox="0 0 49 48" fill="none" xmlns="http://www.w3.org/2000/svg">
<g id="Transaction">
<path id="Vector" d="M24.5019 1.92004C17.5056 1.92004 11.2681 5.18605 7.22187 10.2713V3.84004C7.22363 3.71161 7.1996 3.58412 7.1512 3.46514C7.1028 3.34616 7.03102 3.23809 6.94011 3.14735C6.84919 3.05661 6.74099 2.98504 6.62192 2.93687C6.50284 2.8887 6.37531 2.86491 6.24687 2.86692C5.99259 2.87089 5.75028 2.97559 5.57311 3.15803C5.39594 3.34048 5.29839 3.58576 5.30187 3.84004V13.44H14.9019C15.0291 13.4418 15.1554 13.4183 15.2734 13.3709C15.3915 13.3235 15.4989 13.253 15.5895 13.1637C15.6801 13.0744 15.7521 12.968 15.8012 12.8506C15.8503 12.7332 15.8755 12.6073 15.8755 12.48C15.8755 12.3528 15.8503 12.2269 15.8012 12.1095C15.7521 11.9921 15.6801 11.8857 15.5895 11.7964C15.4989 11.707 15.3915 11.6366 15.2734 11.5892C15.1554 11.5417 15.0291 11.5182 14.9019 11.52H8.68062C12.3721 6.84553 18.0769 3.84004 24.5019 3.84004C35.647 3.84004 44.6619 12.8549 44.6619 24C44.6619 35.1452 35.647 44.16 24.5019 44.16H24.4925H23.5325V45.0394C23.5281 45.0924 23.5281 45.1458 23.5325 45.1988V46.08H24.4925C24.4956 46.0801 24.4987 46.0801 24.5019 46.08H25.4619V46.0557C37.1996 45.5512 46.5819 35.8607 46.5819 24C46.5819 11.8172 36.6847 1.92004 24.5019 1.92004ZM23.5419 10.56V13.4907C21.8792 13.6519 20.5288 14.2403 19.5256 15.255C17.7727 17.0282 17.7809 19.4304 17.7819 19.5207C17.7819 23.6506 21.3926 24.4537 24.2937 25.0988C27.3993 25.7871 29.3019 26.3357 29.3019 28.8C29.3019 32.5728 24.6958 32.6391 24.5019 32.64C19.8852 32.64 19.7067 29.1861 19.7019 28.7925L18.7419 28.8H17.7819C17.7819 30.6663 19.0145 34.0898 23.5419 34.515V37.44H25.4619V34.4982C27.86 34.2044 31.2219 32.785 31.2219 28.8C31.2219 24.6701 27.6111 23.867 24.71 23.2219C21.6044 22.5336 19.7019 21.9842 19.7019 19.5132C19.7019 19.5026 19.7074 18.4136 20.3112 17.37C21.0821 16.0366 22.4926 15.36 24.5019 15.36C28.1547 15.36 28.3332 18.8206 28.3419 19.2113L30.2619 19.1869C30.2388 17.3495 29.1752 14.0039 25.4619 13.5075V10.56H23.5419ZM2.42188 23.04V24V24.0113V24.9713H4.34187V24.0113V24V23.04H2.42188ZM4.43562 26.5182L2.55875 26.925L2.76125 27.8625L2.765 27.8813L2.9675 28.8188L4.84437 28.4138L4.64188 27.4744L4.63812 27.4575L4.43562 26.5182ZM5.19125 29.9663L3.40812 30.6788L3.7625 31.5694L3.77 31.5882L4.12625 32.4788L5.90937 31.7682L5.55312 30.8757L5.54562 30.8588L5.19125 29.9663ZM6.54125 33.2288L4.89687 34.2207L5.39375 35.0438L5.40313 35.0588L5.9 35.88L7.5425 34.8882L7.0475 34.0669L7.03813 34.05L6.54125 33.2288ZM8.43875 36.2044L6.97625 37.4475L7.59687 38.1788L7.61 38.1938L8.23062 38.925L9.695 37.6819L9.0725 36.9507L9.06125 36.9357L8.43875 36.2044ZM10.8219 38.8069L9.575 40.2675L10.3062 40.89L10.3194 40.9032L11.0506 41.5257L12.2975 40.065L11.5662 39.4425L11.5531 39.4294L10.8219 38.8069ZM13.6156 40.9594L12.62 42.6L13.4412 43.0988L13.4563 43.1082L14.2775 43.605L15.2731 41.9644L14.4519 41.4657L14.4369 41.4563L13.6156 40.9594ZM16.7356 42.5925L16.0212 44.3757L16.9119 44.7319L16.9288 44.7394L17.8194 45.0975L18.5338 43.3144L17.6431 42.9582L17.6262 42.9507L16.7356 42.5925ZM20.09 43.6575L19.6794 45.5325L20.6169 45.7388L20.6356 45.7425L21.5731 45.9469L21.9837 44.0719L21.0462 43.8657L21.0275 43.8619L20.09 43.6575Z" fill="#A49561"/>
</g>
</svg>
