<svg width="49" height="48" viewBox="0 0 49 48" fill="none" xmlns="http://www.w3.org/2000/svg">
<g id="Briefcase Settings" clip-path="url(#clip0_131_4728)">
<path id="Vector" d="M19.7 2.88C18.1207 2.88 16.82 4.18074 16.82 5.76V8.64H3.38C1.79216 8.64 0.5 9.93216 0.5 11.52V42.24C0.5 43.8278 1.79216 45.12 3.38 45.12H28.1169C27.6474 44.521 27.2308 43.8797 26.8756 43.2H3.38C2.85008 43.2 2.42 42.769 2.42 42.24V28.6238C2.72144 28.7313 3.04208 28.8 3.38 28.8H28.9475C29.6521 28.0666 30.446 27.4243 31.31 26.88H3.38C2.85008 26.88 2.42 26.449 2.42 25.92V11.52C2.42 10.991 2.85008 10.56 3.38 10.56H45.62C46.1499 10.56 46.58 10.991 46.58 11.52V24.96V25.92V28.4663C47.3077 29.1671 47.9586 29.9489 48.5 30.81V11.52C48.5 9.93216 47.2078 8.64 45.62 8.64H32.18V5.76C32.18 4.18074 30.8793 2.88 29.3 2.88H19.7ZM19.7 4.8H29.3C29.8404 4.8 30.26 5.21959 30.26 5.76V8.64H18.74V5.76C18.74 5.21959 19.1596 4.8 19.7 4.8ZM24.5 21.12C23.9908 21.12 23.5024 21.3223 23.1424 21.6824C22.7823 22.0424 22.58 22.5308 22.58 23.04C22.58 23.5492 22.7823 24.0376 23.1424 24.3976C23.5024 24.7577 23.9908 24.96 24.5 24.96C25.0092 24.96 25.4976 24.7577 25.8576 24.3976C26.2177 24.0376 26.42 23.5492 26.42 23.04C26.42 22.5308 26.2177 22.0424 25.8576 21.6824C25.4976 21.3223 25.0092 21.12 24.5 21.12ZM36.02 26.88L35.4444 29.9513C35.1564 30.0473 34.7724 30.1436 34.4844 30.3356L31.8912 28.5113L29.0112 31.3913L30.74 33.7913C30.644 34.1753 30.4516 34.4648 30.3556 34.8488L27.38 35.3288V39.36L30.3556 39.84C30.4516 40.128 30.548 40.512 30.74 40.8L29.0112 43.3913L31.8912 46.2713L34.4844 44.5444C34.8684 44.7364 35.156 44.8328 35.54 44.9288L36.02 48H39.9556L40.5312 45.0244C40.8192 44.9284 41.1073 44.832 41.4912 44.64L44.0844 46.3688L46.9644 43.4888L45.14 40.9913C45.332 40.6073 45.4284 40.2236 45.5244 39.9356L48.5 39.36V35.3288L45.4287 34.8488C45.3327 34.5608 45.2364 34.1768 45.0444 33.8888L46.7712 31.2956L43.9888 28.5113L41.4912 30.3356C41.2033 30.1436 40.8192 30.0473 40.5312 29.9513L40.0513 26.88H36.02ZM37.6512 28.8H38.42L38.8044 31.3913L39.38 31.5844C39.956 31.7764 40.5312 31.9676 41.0112 32.2556L41.5887 32.64L43.7956 31.0088L44.2756 31.4888L42.74 33.6956L43.0287 34.1756C43.3167 34.7516 43.508 35.3284 43.7 35.9044L43.8913 36.48L46.58 36.8644V37.6313L43.9888 38.2088L43.7956 38.7844C43.6036 39.3604 43.4124 39.9356 43.1244 40.4156L42.74 40.9913L44.3713 43.2L43.7956 43.7756L41.5887 42.24L41.1087 42.5288C40.5327 42.8168 39.956 43.008 39.38 43.2L38.8044 43.3913L38.3244 46.08H37.5556L37.1712 43.4888L36.5956 43.2956C36.0196 43.1036 35.4444 42.9124 34.9644 42.6244L34.3887 42.24L32.0844 43.7756L31.5087 43.2L33.0444 40.9913L32.7556 40.5113C32.4676 39.9353 32.2764 39.2644 32.0844 38.7844L31.8912 38.2088L29.3 37.7288V36.96L31.9887 36.48L32.0844 35.8088C32.1804 35.3288 32.372 34.7513 32.66 34.2713L33.0444 33.7913L31.5087 31.5844L32.0844 31.0088L34.2912 32.5444L34.7712 32.3513C35.4432 32.0633 36.0196 31.7764 36.5956 31.5844L37.1712 31.4888L37.6512 28.8ZM37.94 33.5044C35.828 33.5044 34.1 35.2324 34.1 37.3444C34.1 39.4564 35.828 41.1844 37.94 41.1844C40.052 41.1844 41.78 39.5524 41.78 37.3444C41.78 35.2324 40.052 33.5044 37.94 33.5044ZM37.94 35.52C38.996 35.52 39.86 36.288 39.86 37.44C39.86 38.496 38.996 39.36 37.94 39.36C36.884 39.36 36.02 38.496 36.02 37.44C36.02 36.384 36.884 35.52 37.94 35.52Z" fill="#A49561"/>
</g>
<defs>
<clipPath id="clip0_131_4728">
<rect width="48" height="48" fill="white" transform="translate(0.5)"/>
</clipPath>
</defs>
</svg>
