<svg width="49" height="48" viewBox="0 0 49 48" fill="none" xmlns="http://www.w3.org/2000/svg">
<g id="Diploma">
<path id="Vector" d="M10.0989 3.83997C6.40891 3.83997 3.37891 6.86997 3.37891 10.56V13.44C3.37891 13.9687 3.81016 14.4 4.33891 14.4H9.13891V43.2C9.13891 43.7287 9.57016 44.16 10.0989 44.16H23.5389V42.24H11.0589V14.4H29.2989C29.8277 14.4 30.2589 13.9687 30.2589 13.44V10.56C30.2589 7.91622 32.4152 5.75997 35.0589 5.75997C35.0889 5.75997 35.1189 5.75997 35.1489 5.75997C37.7514 5.80872 39.8589 7.94622 39.8589 10.56V42.24H35.0589V44.16H40.8189C41.3477 44.16 41.7789 43.7287 41.7789 43.2V10.56C41.7789 6.91872 38.8314 3.91872 35.2089 3.83997C35.1602 3.83997 35.1077 3.83997 35.0589 3.83997H10.0989ZM10.0989 5.75997H30.4089C29.1452 6.98247 28.3389 8.67372 28.3389 10.56V12.48H5.29891V10.56C5.29891 7.91622 7.45516 5.75997 10.0989 5.75997ZM15.8589 17.28V19.2H35.0589V17.28H15.8589ZM15.8589 23.04V24.96H35.0589V23.04H15.8589ZM29.2989 28.8C28.5564 28.8 27.9452 29.2125 27.4989 29.79C26.8314 29.6437 26.1114 29.6775 25.5189 30.15C24.9302 30.6225 24.7764 31.35 24.7989 32.04C24.1764 32.3812 23.6627 32.895 23.5389 33.63C23.4189 34.3575 23.7452 35.0025 24.1989 35.52C23.9289 36.2025 23.9027 36.9637 24.2589 37.56C24.3227 37.6687 24.4164 37.74 24.4989 37.83V46.08C24.4952 46.4437 24.6977 46.7775 25.0239 46.9425C25.3464 47.1075 25.7364 47.0775 26.0289 46.86L29.2989 44.4L32.5689 46.86C32.8614 47.0775 33.2514 47.1075 33.5739 46.9425C33.9002 46.7775 34.1027 46.4437 34.0989 46.08V37.83C34.1814 37.74 34.2752 37.6687 34.3389 37.56C34.7552 36.8662 34.6652 36.1575 34.3989 35.52C34.8527 35.0025 35.1789 34.3575 35.0589 33.63C34.9352 32.895 34.4214 32.3812 33.7989 32.04C33.8214 31.35 33.6677 30.6225 33.0789 30.15C32.4864 29.6775 31.7664 29.6437 31.0989 29.79C30.6639 29.2387 30.0527 28.8 29.2989 28.8ZM31.2189 29.97C31.2602 30 31.3389 30.06 31.3089 30.03L31.2789 30.06C31.2602 30.03 31.2377 30 31.2189 29.97ZM29.2989 30.72C29.6064 30.72 29.6364 30.7762 29.7189 31.02C29.7677 31.1662 29.8502 31.3012 29.9589 31.41C30.0077 31.4587 30.0677 31.5225 30.3189 31.65C30.5702 31.7775 30.7802 31.77 30.8289 31.77C31.0052 31.7775 31.1852 31.7362 31.3389 31.65C31.4814 31.5637 31.7402 31.5375 31.8789 31.65C32.0402 31.7812 32.0402 31.8262 31.9389 32.13C31.9014 32.235 31.8789 32.3475 31.8789 32.46C31.8789 32.5912 31.9464 32.61 31.9989 32.73C32.0327 33.1612 32.3514 33.5212 32.7789 33.6C32.9289 33.6262 33.1127 33.81 33.1389 33.96C33.1652 34.125 33.0714 34.3237 32.9289 34.41C32.6514 34.5862 32.4789 34.89 32.4789 35.22V35.52C32.4752 35.7225 32.5389 35.925 32.6589 36.09C32.6852 36.1275 32.7264 36.51 32.6889 36.57C32.6027 36.7125 32.4039 36.8062 32.2389 36.78C31.8864 36.7162 31.5264 36.855 31.3089 37.14C31.3089 37.1512 31.3089 37.1587 31.3089 37.17C31.2752 37.1962 31.2902 37.1925 31.2489 37.23C31.2377 37.2412 31.2302 37.2187 31.2189 37.23C31.0277 37.41 30.9227 37.6575 30.9189 37.92C30.9189 38.175 30.9189 38.1787 30.7089 38.25C30.6677 38.2687 30.6264 38.2875 30.5889 38.31C30.5814 38.3062 30.6077 38.31 30.5589 38.31C30.4952 38.31 30.3077 38.2387 30.1689 38.1C29.9852 37.92 29.7339 37.8225 29.4789 37.83H29.1189C28.8639 37.8225 28.6127 37.92 28.4289 38.1C28.2714 38.2575 28.0989 38.3212 27.8889 38.25C27.7727 38.1862 27.6789 38.055 27.6789 37.92C27.6789 37.7362 27.5889 37.4887 27.4689 37.32C27.3602 37.1662 27.2627 37.0912 27.1989 37.05C26.9777 36.8287 26.6664 36.7275 26.3589 36.78C26.1939 36.8062 25.9952 36.7125 25.9089 36.57C25.7964 36.3787 25.7589 36.3075 25.9089 36.12C26.0439 35.9512 26.1189 35.7375 26.1189 35.52V35.22C26.1189 34.89 25.9464 34.5862 25.6689 34.41C25.5264 34.3237 25.4327 34.125 25.4589 33.96C25.4852 33.81 25.6689 33.6262 25.8189 33.6C26.2464 33.5212 26.5652 33.1612 26.5989 32.73C26.6514 32.61 26.7189 32.5912 26.7189 32.46C26.7189 32.3475 26.6964 32.235 26.6589 32.13C26.5577 31.8262 26.5577 31.7812 26.7189 31.65C26.8577 31.5375 27.1164 31.5637 27.2589 31.65C27.5552 31.8225 27.9227 31.8225 28.2189 31.65C28.2302 31.65 28.2377 31.65 28.2489 31.65C28.2602 31.6387 28.2677 31.6312 28.2789 31.62C28.2977 31.6125 28.3202 31.6012 28.3389 31.59C28.5902 31.485 28.7889 31.2787 28.8789 31.02C28.9277 30.87 29.1489 30.72 29.2989 30.72ZM26.4189 39.42C26.6364 39.6975 26.8989 39.9187 27.2289 40.05C27.2402 40.0612 27.2477 40.0687 27.2589 40.08C27.9864 40.3237 28.6877 40.11 29.2689 39.75C29.2764 39.7462 29.2914 39.7537 29.2989 39.75H29.4789C29.8202 39.9487 30.1239 40.23 30.5589 40.23C30.7239 40.23 31.0539 40.1587 31.3389 40.05C31.3539 40.035 31.3802 40.0275 31.3989 40.02C31.4177 40.0125 31.4402 40.0312 31.4589 40.02V39.99C31.7552 39.8662 31.9914 39.6787 32.1789 39.45V44.16L29.8689 42.42C29.5314 42.1687 29.0664 42.1687 28.7289 42.42L26.4189 44.16V39.42Z" fill="#A49561"/>
</g>
</svg>
