<svg width="49" height="48" viewBox="0 0 49 48" fill="none" xmlns="http://www.w3.org/2000/svg">
<g id="Language">
<path id="Vector" d="M24.5019 1.92004C12.3669 1.92004 2.42188 10.905 2.42188 22.08C2.42188 26.8313 4.25187 31.185 7.25187 34.62H7.22187C7.59687 35.25 7.64562 36 7.43187 36.93C7.21813 37.86 6.73813 38.9063 6.17188 39.87C5.60562 40.8338 4.97187 41.7038 4.46187 42.39C4.20687 42.7313 3.97438 43.02 3.80187 43.26C3.71562 43.38 3.65938 43.5038 3.59187 43.62C3.52438 43.7363 3.38187 43.7288 3.38187 44.25C3.38187 44.6475 3.53938 45.135 3.92188 45.51C4.30438 45.885 4.85562 46.08 5.48187 46.08C9.90687 46.08 13.9344 42.7913 17.0019 40.98C19.3531 41.76 21.8619 42.24 24.5019 42.24C36.6369 42.24 46.5819 33.255 46.5819 22.08C46.5819 10.905 36.6369 1.92004 24.5019 1.92004ZM24.5019 3.84004C35.6956 3.84004 44.6619 12.045 44.6619 22.08C44.6619 32.115 35.6956 40.32 24.5019 40.32C21.9069 40.32 19.4281 39.8663 17.1519 39.06L16.7319 38.91L16.3719 39.15C13.0419 41.055 9.03312 44.1263 5.54187 44.16C5.67313 43.98 5.80062 43.815 5.99187 43.56C6.51312 42.8588 7.19562 41.895 7.82188 40.83C8.44812 39.765 9.04062 38.5838 9.32187 37.35C9.60313 36.1163 9.56938 34.7963 8.87187 33.63L8.81187 33.54L8.78187 33.48C6.00688 30.345 4.34187 26.3925 4.34187 22.08C4.34187 12.045 13.3081 3.84004 24.5019 3.84004ZM16.1919 11.52C15.8394 11.5838 15.5469 11.8388 15.4419 12.18L12.5319 20.58C12.4194 20.7375 12.3556 20.925 12.3519 21.12L11.1219 24.66C10.9494 24.9975 10.9906 25.4025 11.2269 25.6988C11.4631 25.995 11.8494 26.1225 12.2169 26.0288C12.5806 25.935 12.8581 25.635 12.9219 25.26L14.0319 22.08H18.6519L19.7619 25.26C19.8256 25.635 20.1031 25.935 20.4669 26.0288C20.8344 26.1225 21.2206 25.995 21.4569 25.6988C21.6931 25.4025 21.7344 24.9975 21.5619 24.66L17.2419 12.18C17.0994 11.7338 16.6569 11.4525 16.1919 11.52ZM16.3419 15.39L17.9919 20.16H14.6919L16.3419 15.39ZM32.0919 18.21C32.0506 18.2175 32.0094 18.2288 31.9719 18.24C31.5256 18.3413 31.2106 18.7425 31.2219 19.2V21.12H26.4219C26.3919 21.12 26.3619 21.12 26.3319 21.12C26.3019 21.12 26.2719 21.12 26.2419 21.12C25.7131 21.1688 25.3231 21.6413 25.3719 22.17C25.4206 22.6988 25.8931 23.0888 26.4219 23.04H34.7919C34.4131 24.2963 33.5431 26.4338 31.6119 28.38C29.9769 26.7675 29.2419 25.41 29.2419 25.41C29.0581 25.0575 28.6756 24.855 28.2819 24.9C27.9594 24.9375 27.6781 25.1325 27.5319 25.425C27.3856 25.7138 27.3969 26.0588 27.5619 26.34C27.5619 26.34 28.3906 27.8363 30.1419 29.61C29.0506 30.4275 27.7419 31.185 26.1219 31.74C25.7469 31.8038 25.4469 32.0813 25.3531 32.445C25.2594 32.8125 25.3869 33.1988 25.6831 33.435C25.9794 33.6713 26.3844 33.7125 26.7219 33.54C28.6794 32.8688 30.2581 31.9313 31.5519 30.9C32.6581 31.8225 33.9781 32.7338 35.6019 33.51C36.0819 33.7425 36.6594 33.54 36.8919 33.06C37.1244 32.58 36.9219 32.0025 36.4419 31.77C35.0769 31.1175 33.9444 30.3713 32.9919 29.61C35.4556 27.0713 36.4156 24.3413 36.7719 23.04H37.9419C38.2869 23.0438 38.6094 22.8638 38.7856 22.5638C38.9581 22.2638 38.9581 21.8963 38.7856 21.5963C38.6094 21.2963 38.2869 21.1163 37.9419 21.12H33.1419V19.2C33.1531 18.9225 33.0406 18.6563 32.8419 18.4688C32.6394 18.2775 32.3656 18.1838 32.0919 18.21Z" fill="#A49561"/>
</g>
</svg>
