<svg width="16" height="16" viewBox="0 0 16 16" fill="none" xmlns="http://www.w3.org/2000/svg">
<g id="Icons">
<path id="Vector" d="M0.960056 2.88001C0.917652 2.87941 0.875552 2.88724 0.836202 2.90305C0.796852 2.91887 0.761037 2.94234 0.730839 2.97212C0.700641 3.00189 0.676661 3.03737 0.660294 3.07649C0.643927 3.11561 0.635498 3.1576 0.635498 3.20001C0.635498 3.24241 0.643927 3.2844 0.660294 3.32352C0.676661 3.36264 0.700641 3.39812 0.730839 3.4279C0.761037 3.45767 0.796852 3.48115 0.836202 3.49696C0.875552 3.51277 0.917652 3.52061 0.960056 3.52001H15.0401C15.0825 3.52061 15.1246 3.51277 15.1639 3.49696C15.2033 3.48115 15.2391 3.45767 15.2693 3.4279C15.2995 3.39812 15.3235 3.36264 15.3398 3.32352C15.3562 3.2844 15.3646 3.24241 15.3646 3.20001C15.3646 3.1576 15.3562 3.11561 15.3398 3.07649C15.3235 3.03737 15.2995 3.00189 15.2693 2.97212C15.2391 2.94234 15.2033 2.91887 15.1639 2.90305C15.1246 2.88724 15.0825 2.87941 15.0401 2.88001H0.960056ZM0.960056 7.68001C0.917652 7.67941 0.875552 7.68724 0.836202 7.70305C0.796852 7.71887 0.761037 7.74234 0.730839 7.77212C0.700641 7.80189 0.676661 7.83737 0.660294 7.87649C0.643927 7.91561 0.635498 7.9576 0.635498 8.00001C0.635498 8.04241 0.643927 8.0844 0.660294 8.12352C0.676661 8.16264 0.700641 8.19812 0.730839 8.2279C0.761037 8.25767 0.796852 8.28115 0.836202 8.29696C0.875552 8.31277 0.917652 8.32061 0.960056 8.32001H15.0401C15.0825 8.32061 15.1246 8.31277 15.1639 8.29696C15.2033 8.28115 15.2391 8.25767 15.2693 8.2279C15.2995 8.19812 15.3235 8.16264 15.3398 8.12352C15.3562 8.0844 15.3646 8.04241 15.3646 8.00001C15.3646 7.9576 15.3562 7.91561 15.3398 7.87649C15.3235 7.83737 15.2995 7.80189 15.2693 7.77212C15.2391 7.74234 15.2033 7.71887 15.1639 7.70305C15.1246 7.68724 15.0825 7.67941 15.0401 7.68001H0.960056ZM0.960056 12.48C0.917652 12.4794 0.875552 12.4872 0.836202 12.5031C0.796852 12.5189 0.761037 12.5423 0.730839 12.5721C0.700641 12.6019 0.676661 12.6374 0.660294 12.6765C0.643927 12.7156 0.635498 12.7576 0.635498 12.8C0.635498 12.8424 0.643927 12.8844 0.660294 12.9235C0.676661 12.9626 0.700641 12.9981 0.730839 13.0279C0.761037 13.0577 0.796852 13.0811 0.836202 13.097C0.875552 13.1128 0.917652 13.1206 0.960056 13.12H15.0401C15.0825 13.1206 15.1246 13.1128 15.1639 13.097C15.2033 13.0811 15.2391 13.0577 15.2693 13.0279C15.2995 12.9981 15.3235 12.9626 15.3398 12.9235C15.3562 12.8844 15.3646 12.8424 15.3646 12.8C15.3646 12.7576 15.3562 12.7156 15.3398 12.6765C15.3235 12.6374 15.2995 12.6019 15.2693 12.5721C15.2391 12.5423 15.2033 12.5189 15.1639 12.5031C15.1246 12.4872 15.0825 12.4794 15.0401 12.48H0.960056Z" fill="white"/>
</g>
</svg>
