<svg width="49" height="48" viewBox="0 0 49 48" fill="none" xmlns="http://www.w3.org/2000/svg">
<g id="Washington" clip-path="url(#clip0_323_7038)">
<path id="Vector" d="M13.58 7.67999C13.4172 7.68013 13.2571 7.72167 13.1147 7.80072C12.9724 7.87977 12.8524 7.99372 12.7662 8.13187L12.1662 9.09187C12.0632 9.25715 12.0128 9.44987 12.0219 9.64444C12.0309 9.83901 12.0989 10.0262 12.2169 10.1812L13.94 12.4444V15.7556C13.9401 15.8942 13.9701 16.031 14.0281 16.1569L14.0731 16.2544L13.3269 15.84C13.309 15.8307 13.2909 15.8219 13.2725 15.8137L12.98 15.675V14.4C12.9801 14.2217 12.9305 14.047 12.8368 13.8953C12.7431 13.7436 12.6091 13.621 12.4497 13.5412C12.2903 13.4614 12.1118 13.4275 11.9342 13.4434C11.7567 13.4594 11.5871 13.5244 11.4444 13.6312L10.4844 14.3512C10.4193 14.3999 10.3608 14.4566 10.31 14.52L9.63875 15.36H8.27937L6.21875 14.9269L5.17812 14.4056L4.10938 13.7119L3.07812 12.7406C2.89995 12.5731 2.66456 12.4799 2.42 12.48H1.46C1.2054 12.48 0.961235 12.5812 0.781206 12.7612C0.601176 12.9412 0.500025 13.1854 0.5 13.44L0.5 17.28C0.500049 17.5346 0.601215 17.7787 0.78125 17.9587L1.56125 18.7387L2.42 21.8494V23.04C2.41985 23.1681 2.44535 23.295 2.495 23.4131L3.455 25.6931C3.52464 25.8565 3.63823 25.9973 3.78312 26.1C3.65874 26.1886 3.55729 26.3056 3.48718 26.4412C3.41706 26.5769 3.38032 26.7273 3.38 26.88V28.8C3.38008 29.022 3.4571 29.2371 3.59795 29.4087C3.73879 29.5804 3.93477 29.6979 4.1525 29.7412L3.91062 29.8612C3.75116 29.941 3.61706 30.0636 3.52334 30.2153C3.42962 30.3669 3.37999 30.5417 3.38 30.72V32.04C3.38015 32.2174 3.42948 32.3914 3.5225 32.5425L4.4825 34.1025C4.55845 34.226 4.66138 34.3306 4.78355 34.4086C4.90573 34.4867 5.04398 34.536 5.18794 34.553C5.33191 34.5699 5.47784 34.5541 5.6148 34.5066C5.75176 34.4591 5.87619 34.3812 5.97875 34.2787L6.6575 33.6H7.5875L7.80125 34.0294C7.881 34.1888 8.00359 34.3229 8.15526 34.4166C8.30693 34.5104 8.48171 34.56 8.66 34.56H9.71L10.5106 35.3362L11.075 38.0175L11.06 38.3625C11.0522 38.5629 11.1073 38.7607 11.2176 38.9281C11.3279 39.0956 11.4878 39.2243 11.675 39.2962L14.1725 40.2562C14.3408 40.3212 14.5241 40.3375 14.7013 40.3031L17.0975 39.8362C17.2507 39.8063 17.3944 39.7394 17.5159 39.6414C17.6374 39.5433 17.7332 39.4172 17.795 39.2737L18.1719 38.4H19.5444L22.2762 39.3112C22.4438 39.367 22.6236 39.3754 22.7956 39.3356L24.3556 38.9756C24.5025 38.9416 24.6393 38.8736 24.755 38.7769L24.8731 38.6794L25.46 39.15C25.5711 39.2389 25.7005 39.302 25.839 39.3348C25.9775 39.3675 26.1215 39.3691 26.2606 39.3394L27.9406 38.9794C28.1218 38.9405 28.2879 38.8499 28.4187 38.7187L29.3 37.8375L29.5812 38.1187C29.7073 38.2449 29.8659 38.3335 30.0395 38.3746C30.213 38.4156 30.3945 38.4076 30.5637 38.3512L36.1756 36.48H47.54C47.6859 36.48 47.8299 36.4468 47.961 36.3829C48.0922 36.319 48.207 36.226 48.2968 36.1111C48.3867 35.9961 48.4491 35.8622 48.4795 35.7195C48.5098 35.5768 48.5072 35.429 48.4719 35.2875L47.54 31.56V8.63999C47.54 8.38539 47.4388 8.14123 47.2588 7.9612C47.0788 7.78117 46.8346 7.68002 46.58 7.67999H13.58ZM14.1875 9.59999H45.62V31.68C45.6199 31.7584 45.6293 31.8364 45.6481 31.9125L46.31 34.56H36.02C35.9168 34.5598 35.8142 34.5763 35.7162 34.6087L30.5187 36.3412L29.9788 35.8012C29.7987 35.6213 29.5546 35.5202 29.3 35.5202C29.0454 35.5202 28.8013 35.6213 28.6213 35.8012L27.2619 37.1606L26.3037 37.365L25.46 36.69C25.287 36.5517 25.0716 36.4775 24.8502 36.4799C24.6287 36.4823 24.4149 36.5611 24.245 36.7031L23.7013 37.1569L22.6269 37.4044L20.0037 36.5287C19.9058 36.4963 19.8032 36.4798 19.7 36.48H17.54C17.3526 36.48 17.1693 36.5349 17.0127 36.6378C16.8561 36.7408 16.7331 36.8873 16.6588 37.0594L16.2331 38.0475L14.6037 38.3644L13.0062 37.7512L12.9969 37.9744C13.0004 37.8951 12.9941 37.8158 12.9781 37.7381L12.3294 34.6537C12.2897 34.4666 12.195 34.2955 12.0575 34.1625L10.7694 32.9119C10.5902 32.7375 10.35 32.64 10.1 32.64H9.2525L9.03875 32.2106C8.959 32.0512 8.83641 31.9171 8.68474 31.8233C8.53307 31.7296 8.35829 31.68 8.18 31.68H6.26C6.00541 31.68 5.76126 31.7812 5.58125 31.9612L5.48 32.0625L5.3 31.7681V31.3125L5.72937 31.0987C5.88884 31.019 6.02294 30.8964 6.11666 30.7447C6.21038 30.5931 6.26001 30.4183 6.26 30.24V28.8C6.25997 28.5454 6.15882 28.3012 5.97879 28.1212C5.79876 27.9412 5.5546 27.84 5.3 27.84V27.63L6.4925 27.3319C6.67893 27.2853 6.84709 27.1838 6.97523 27.0406C7.10336 26.8974 7.18557 26.719 7.21122 26.5286C7.23687 26.3381 7.20478 26.1444 7.1191 25.9723C7.03342 25.8003 6.89809 25.658 6.73062 25.5637L5.0975 24.645L4.34 22.8469V21.72C4.34024 21.6339 4.32889 21.5481 4.30625 21.465L3.34625 17.985C3.30185 17.8247 3.21657 17.6787 3.09875 17.5612L2.42 16.8825V14.7581L2.85687 15.1687C2.89858 15.2083 2.94376 15.2441 2.99187 15.2756L4.17687 16.0444C4.20708 16.0642 4.23838 16.0824 4.27062 16.0987L5.47062 16.6987C5.54435 16.7355 5.62249 16.7626 5.70312 16.7794L7.98312 17.2594C8.04786 17.273 8.11384 17.2799 8.18 17.28H10.1C10.244 17.2801 10.3862 17.2478 10.516 17.1854C10.6458 17.1231 10.76 17.0324 10.85 16.92L11.1125 16.5919C11.154 16.7126 11.2191 16.8239 11.3041 16.9192C11.3891 17.0145 11.4922 17.0919 11.6075 17.1469L12.4212 17.5331L13.2575 17.9981L13.7262 18.7481C13.8427 18.9346 14.0197 19.0754 14.2275 19.1471C14.4353 19.2187 14.6615 19.2169 14.8681 19.1419L16.1881 18.6619C16.3733 18.5945 16.5332 18.4719 16.6462 18.3105C16.7593 18.1492 16.8199 17.957 16.82 17.76V17.28C16.82 17.0254 16.7188 16.7813 16.5387 16.6012L16.1806 16.2431L15.86 15.5456V12.12C15.8597 11.9099 15.7906 11.7057 15.6631 11.5387L14.1875 9.59999ZM9.25062 9.61312C9.15259 9.59032 9.04807 9.59582 8.95062 9.63374L6.57125 10.545C6.44549 10.593 6.3465 10.6885 6.29562 10.8075C6.2457 10.9285 6.2484 11.0625 6.30312 11.1806L6.74 12.1087C6.76976 12.1702 6.81191 12.224 6.86375 12.2681L7.5425 12.8456C7.64906 12.9359 8.45445 13.2916 8.62437 13.3819C8.69829 13.4212 8.7809 13.44 8.8625 13.44C8.96714 13.44 9.07139 13.4067 9.15875 13.3462L9.65375 12.99C9.77855 12.8998 9.8525 12.76 9.8525 12.6112V11.7806C9.8525 11.7259 9.84357 11.6721 9.82438 11.6212L9.7925 11.5387L10.0737 10.7456C10.1294 10.5863 10.0933 10.4092 9.97812 10.2825L9.50937 9.76312C9.44026 9.6868 9.34867 9.63592 9.25062 9.61312Z" fill="#A49561"/>
</g>
<defs>
<clipPath id="clip0_323_7038">
<rect width="48" height="48" fill="white" transform="translate(0.5)"/>
</clipPath>
</defs>
</svg>
