<svg width="49" height="48" viewBox="0 0 49 48" fill="none" xmlns="http://www.w3.org/2000/svg">
<g id="Refund" clip-path="url(#clip0_323_7028)">
<path id="Vector" d="M0.5 0L26.42 25.92L41.87 10.47L31.52 0H28.82L34.4 5.58C35.36 6.54 35.06 7.4775 34.58 8.82C34.3888 9.3975 34.19 9.8925 34.19 10.47C34.19 11.0475 34.4713 11.7187 34.76 12.39C35.24 13.4475 35.5325 14.3175 35.15 14.7L29.3 20.55C29.1088 20.7412 28.4225 20.4412 28.04 20.25C27.56 20.0588 27.08 19.86 26.6 19.86C26.2175 19.86 25.85 20.0625 25.37 20.16C24.41 20.5425 23.93 20.64 23.45 20.16L6.26 2.97C5.6825 2.3925 5.8775 2.01 6.26 1.05C6.3575 0.6675 6.44 0.3825 6.44 0H4.52C4.52 0.0975005 4.43 0.19875 4.43 0.39C4.3325 0.4875 4.2575 0.76875 4.16 0.96L3.2 0H0.5ZM15.56 0C12.4888 3.36 12.32 8.25 15.2 11.13C16.5425 12.4725 18.3575 13.1625 20.18 13.26C22.4825 13.26 24.6913 12.2887 26.42 10.56C29.4913 7.48875 29.9788 3.07125 27.77 0H25.07C25.3588 0.0975005 25.5688 0.28875 25.76 0.48C27.9688 2.68875 27.7513 6.52875 25.16 9.12C23.8175 10.4625 21.9988 11.22 20.27 11.22C18.83 11.22 17.48 10.65 16.52 9.69C14.3113 7.48125 14.5288 3.64125 17.12 1.05C17.6 0.6675 18.08 0.28875 18.56 0H15.56ZM5.6 7.98L16.82 25.92L20.96 23.34L17.48 19.86C17.2887 19.86 17.1013 19.8825 16.91 19.98C15.8525 20.1712 15.3725 20.1712 14.99 19.5L11.54 14.01L5.6 7.98ZM36.8 8.07L39.2 10.47L36.89 12.78C36.6987 12.3 36.5075 11.9025 36.41 11.52C36.2188 11.1375 36.02 10.5675 36.02 10.47C36.02 10.3725 36.2225 9.88875 36.32 9.6C36.5113 9.2175 36.7025 8.6475 36.8 8.07ZM29.24 10.95C28.4488 10.95 27.6575 11.2425 27.08 11.82C26.5025 12.3975 26.24 13.1512 26.24 13.92C26.3375 14.7825 26.6225 15.5625 27.2 16.14C27.7775 16.7175 28.5313 16.98 29.3 16.98C30.0688 16.98 30.8225 16.7175 31.4 16.14C32.5513 14.9887 32.5513 13.0687 31.4 11.82C30.8225 11.2425 30.0313 10.95 29.24 10.95ZM29.3 12.87C29.5888 12.87 29.8888 12.9487 30.08 13.14C30.56 13.62 30.56 14.31 30.08 14.79C29.6975 15.1725 28.91 15.1725 28.43 14.79C28.2388 14.5987 28.16 14.2987 28.16 14.01C28.2575 13.6275 28.3288 13.3313 28.52 13.14C28.7113 12.9487 29.0113 12.87 29.3 12.87ZM17.78 21.69C17.8775 21.69 18.1588 21.9825 18.35 22.08C18.4475 22.1775 18.6425 22.2825 18.74 22.38L17.39 23.13L16.64 21.9C16.9288 21.9 17.1088 21.78 17.3 21.78C17.4913 21.78 17.78 21.69 17.78 21.69ZM26.33 21.69C26.4275 21.69 26.7987 21.8925 26.99 21.99C27.0875 22.0875 27.2788 22.0725 27.47 22.17L26.42 23.22L25.28 22.08C25.4713 21.9825 25.7525 21.9 25.85 21.9C26.0413 21.8025 26.2325 21.69 26.33 21.69ZM14.3 26.85C13.6138 26.9025 12.8938 27.135 12.38 27.75C12.2038 27.9637 12.1363 28.23 12.05 28.5C10.85 27.9675 9.61625 27.6787 8.57 27.87C8.55875 27.87 8.55125 27.87 8.54 27.87C7.72625 28.0575 7.0025 28.5413 6.68 29.25C6.59375 29.4375 6.6875 29.655 6.65 29.85C5.58875 29.3962 4.6025 29.1075 3.8 29.13C2.66375 29.16 1.7825 29.6812 1.28 30.33C0.62375 31.1812 0.4775 32.3175 0.89 33.27C1.295 34.2113 2.0975 35.0212 3.17 35.79C3.17375 35.7938 3.19625 35.8162 3.2 35.82C3.60875 36.1312 4.55 36.7725 5.9 37.68C7.265 38.5987 8.99375 39.7425 10.73 40.89C14.2025 43.185 17.6863 45.48 18.62 46.05C18.6313 46.05 18.6388 46.05 18.65 46.05C19.5763 46.5788 20.615 47.4113 22.07 47.82C23.525 48.2287 25.3288 48.12 27.59 47.04C27.6013 47.04 27.6088 47.04 27.62 47.04C29.0113 46.3425 34.4675 43.47 36.29 42.51C37.1413 42.0637 37.5988 41.925 37.94 41.94C38.2812 41.955 38.6525 42.1237 39.32 42.57L41.93 44.28C42.2113 44.52 42.6087 44.58 42.9463 44.4263C43.2875 44.2725 43.5088 43.9387 43.5125 43.5675C43.52 43.1962 43.3138 42.855 42.98 42.69L40.4 40.95C39.6275 40.4362 38.8888 40.0537 38.03 40.02C37.1713 39.9862 36.3613 40.2863 35.39 40.8C33.575 41.7562 28.1038 44.6362 26.78 45.3C24.8188 46.2375 23.5963 46.245 22.58 45.96C21.5638 45.675 20.6975 44.9925 19.61 44.37V44.4C18.815 43.9125 15.245 41.5912 11.78 39.3C10.0475 38.1562 8.34125 37.005 6.98 36.09C5.61875 35.175 4.565 34.4625 4.34 34.29C4.32875 34.2787 4.32125 34.2712 4.31 34.26C3.38375 33.6 2.8475 32.9587 2.66 32.52C2.4725 32.0812 2.50625 31.8975 2.81 31.5C2.97875 31.29 3.23375 31.0687 3.86 31.05C4.415 31.035 5.3075 31.2525 6.5 31.86C6.575 31.9575 6.665 32.0363 6.77 32.1L15.53 37.95C15.6013 38.01 15.6838 38.0625 15.77 38.1C15.965 38.3062 16.16 38.4937 16.4 38.64C17.2963 39.1763 18.3988 39.36 19.7 39.36H25.28C28.1075 39.36 31.49 38.37 31.49 38.37C32.0038 38.22 32.3 37.6838 32.15 37.17C32 36.6562 31.4638 36.36 30.95 36.51C30.95 36.51 27.635 37.44 25.28 37.44H19.7C18.6013 37.44 17.7838 37.245 17.36 36.99C16.9363 36.735 16.82 36.5325 16.82 36C16.82 35.5125 16.9438 35.3025 17.36 35.04C17.7763 34.7775 18.5638 34.56 19.7 34.56C21.0125 34.56 22.7075 34.2675 24.29 33.87C24.3088 33.8662 24.3313 33.8737 24.35 33.87C24.5938 33.9 24.8413 33.8363 25.04 33.69C26.3038 33.345 27.395 32.94 28.13 32.52C28.1488 32.5125 28.1713 32.5013 28.19 32.49C30.35 31.14 30.1888 28.8 35.63 28.8C38.0788 28.8 38.7725 29.2762 40.28 29.88C42.6763 30.8025 47.21 33.03 47.21 33.03C47.69 33.2625 48.2675 33.06 48.5 32.58C48.7325 32.1 48.53 31.5225 48.05 31.29C48.05 31.29 43.565 29.1075 40.97 28.11C39.5975 27.5625 38.3638 26.88 35.63 26.88C29.5888 26.88 28.1113 30.2362 27.2 30.84C27.1925 30.8438 27.1775 30.8662 27.17 30.87C26.7725 31.0912 25.7375 31.4662 24.56 31.8C23.9638 31.4137 19.6888 28.65 18.14 27.78C17.1013 27.2025 15.6725 26.7412 14.3 26.85ZM14.45 28.77C15.2113 28.71 16.52 29.0775 17.21 29.46V29.43C18.14 29.9513 20.2887 31.3312 21.95 32.4C21.0837 32.55 20.2813 32.64 19.7 32.64C19.2125 32.64 18.7738 32.6662 18.35 32.73L13.82 29.64C13.7263 29.16 13.7975 29.0437 13.85 28.98C13.9063 28.9125 14.0675 28.8 14.45 28.77ZM8.93 29.73C8.9375 29.73 8.9525 29.73 8.96 29.73C9.53375 29.6362 10.6775 29.8425 11.78 30.42C11.855 30.5925 11.9825 30.7387 12.14 30.84L16.16 33.57C15.5863 33.9975 15.1588 34.59 14.99 35.28L8.42 30.9C8.34875 30.4688 8.3675 30.1725 8.42 30.06C8.47625 29.9362 8.54375 29.8237 8.93 29.73Z" fill="#A49561"/>
</g>
<defs>
<clipPath id="clip0_323_7028">
<rect width="48" height="48" fill="white" transform="translate(0.5)"/>
</clipPath>
</defs>
</svg>
