<svg width="49" height="48" viewBox="0 0 49 48" fill="none" xmlns="http://www.w3.org/2000/svg">
<g id="Lawyer" clip-path="url(#clip0_323_7023)">
<path id="Vector" d="M26.4208 3.84C21.9088 3.84 18.3479 5.49082 16.3895 8.49562C14.7383 11.0396 14.4596 14.3137 15.602 17.3569C15.2372 17.8753 14.9194 18.6615 15.0058 19.7175C15.2842 21.7911 16.082 22.6456 16.7252 22.9912C17.042 24.7192 17.982 26.5445 18.8364 27.4181C18.8172 28.1477 18.7794 28.675 18.7314 29.3662C18.7218 29.4622 18.7127 29.5588 18.7127 29.6644H18.6452C18.4724 29.6644 18.3094 29.7111 18.1558 29.7975C18.0886 29.8359 16.5047 30.7774 15.1895 32.6494C9.07433 34.051 5.30078 39.1584 5.30078 43.2C5.30078 43.728 5.73278 44.16 6.26078 44.16H22.2564C22.4138 44.2006 22.579 44.2006 22.7364 44.16H25.4608V43.2V42.24V33.6C25.4608 33.312 25.4894 33.0342 25.547 32.775L25.4608 32.64H23.7602C23.6418 32.6122 22.8814 32.4295 22.082 32.0494C21.6504 31.8441 21.2417 31.5848 20.9908 31.3369C20.7398 31.089 20.6608 30.9116 20.6608 30.72C20.6623 30.5901 20.6374 30.4612 20.5877 30.3412C20.6075 30.0503 20.6284 29.7556 20.642 29.5106C20.7092 28.685 20.7564 28.022 20.7564 26.9756C20.7564 26.6588 20.545 26.333 20.2858 26.1506C19.9114 25.8914 18.7127 23.9706 18.5495 22.185C18.5015 21.6858 18.1544 21.3225 17.6552 21.3225C17.5208 21.2649 17.0892 20.8131 16.9164 19.5075C16.9068 19.4499 16.907 19.3926 16.907 19.335C16.907 18.6534 17.2633 18.3656 17.2633 18.3656C17.6473 18.1064 17.7909 17.6068 17.5989 17.1844C16.4469 14.5636 16.5908 11.7112 18.002 9.55125C19.5092 7.22805 22.2742 5.90377 25.8358 5.76937L26.5258 7.15125C26.6794 7.47765 27.016 7.68 27.3808 7.68C29.1856 7.68 30.5192 8.53455 31.3352 10.2337C32.5256 12.6721 32.2105 16.0601 31.4233 17.0681C31.2217 17.3369 31.1637 17.6832 31.2789 18C31.3845 18.2688 31.5953 18.4702 31.8545 18.5662C31.9217 18.6814 32.0375 19.0081 31.9895 19.5937C31.8647 21.0145 31.4124 21.3895 31.3164 21.4087C30.8364 21.4087 30.433 21.754 30.3658 22.2244C30.097 23.9908 29.0039 25.9681 28.6295 26.2369C28.3319 26.4097 28.1495 26.7256 28.1495 27.0712C28.1495 28.06 28.1967 28.7516 28.2639 29.6156C28.2735 29.7116 28.2731 29.7988 28.2827 29.9044C28.6091 29.8084 28.9456 29.76 29.3008 29.76H30.1933C30.1933 29.664 30.1841 29.5689 30.1745 29.4825C30.1265 28.7529 30.0887 28.2052 30.0695 27.5044C30.9239 26.5924 31.7881 24.6812 32.1433 23.1356C32.8345 22.8092 33.7079 21.9649 33.9095 19.7569C33.9863 18.8065 33.8023 17.9905 33.4183 17.4337C34.2823 15.4753 34.3599 12.0377 33.0639 9.38812C32.0175 7.23772 30.2328 5.98012 27.9864 5.78812L27.2758 4.36875C27.1222 4.04235 26.7856 3.84 26.4208 3.84ZM36.0208 27.84C34.9714 27.84 34.1008 28.7107 34.1008 29.76V31.68H29.3008C28.2514 31.68 27.3808 32.5507 27.3808 33.6V35.52V39.36V46.08C27.3808 47.1293 28.2514 48 29.3008 48H46.5808C47.6301 48 48.5008 47.1293 48.5008 46.08V33.6C48.5008 32.5507 47.6301 31.68 46.5808 31.68H41.7808V29.76C41.7808 28.7107 40.9101 27.84 39.8608 27.84H36.0208ZM36.0208 29.76H39.8608V31.68H36.0208V29.76ZM18.0227 32.3212C18.1276 32.7655 18.2492 33.2299 18.4014 33.7781C18.759 35.0664 19.2302 36.5719 19.7008 38.0137C20.2811 39.7919 20.7722 41.2133 21.1314 42.24H18.242L15.3245 38.5931L17.1864 37.2619C17.3454 37.1483 17.466 36.9889 17.532 36.8049C17.598 36.621 17.6063 36.4213 17.5558 36.2325L16.8639 33.6319C17.2559 33.101 17.6554 32.6574 18.0227 32.3212ZM20.2108 33.0844C20.5576 33.3353 20.8994 33.6137 21.257 33.7837C21.7794 34.0322 22.285 34.2084 22.682 34.3312L23.5408 36.48L22.472 40.2244C22.1747 39.3565 21.8691 38.4713 21.5252 37.4175C21.0597 35.9914 20.5946 34.5051 20.2502 33.2644C20.2258 33.1765 20.2338 33.1705 20.2108 33.0844ZM29.3008 33.6H34.1008H41.7808H46.5808V39.36C46.5808 39.9024 46.1632 40.32 45.6208 40.32H40.8208V39.36C40.8208 38.3107 39.9501 37.44 38.9008 37.44H36.9808C35.9314 37.44 35.0608 38.3107 35.0608 39.36V40.32H30.2608C29.7184 40.32 29.3008 39.9024 29.3008 39.36V35.52V33.6ZM15.1445 34.6387L15.5308 36.0844L13.382 37.6181C13.2758 37.694 13.1861 37.7908 13.1185 37.9025C13.0509 38.0142 13.0068 38.1385 12.9889 38.2679C12.971 38.3972 12.9796 38.5289 13.0144 38.6548C13.0491 38.7806 13.1091 38.8981 13.1908 39L15.782 42.24H7.30703C7.82332 39.2419 10.7082 35.8367 15.1445 34.6387ZM36.9808 39.36H38.9008V40.32H36.9808V39.36ZM29.3008 42.06C29.6031 42.169 29.923 42.24 30.2608 42.24H45.6208C45.9586 42.24 46.2785 42.169 46.5808 42.06V46.08H29.3008V42.06Z" fill="#A49561"/>
</g>
<defs>
<clipPath id="clip0_323_7023">
<rect width="48" height="48" fill="white" transform="translate(0.5)"/>
</clipPath>
</defs>
</svg>
