<svg width="49" height="48" viewBox="0 0 49 48" fill="none" xmlns="http://www.w3.org/2000/svg">
<g id="New York" clip-path="url(#clip0_323_7033)">
<path id="Vector" d="M31.22 4.79999C31.1208 4.79978 31.0221 4.81496 30.9275 4.84499L29.7687 5.21811C29.6923 5.24264 29.6192 5.27665 29.5512 5.31936L27.62 6.53249C27.5713 6.56331 27.5255 6.59845 27.4831 6.63749L26.225 7.78874C26.2102 7.80265 26.1958 7.81704 26.1819 7.83187L24.8056 9.26624C24.7824 9.2907 24.7605 9.31636 24.74 9.34312L24.1362 10.125L21.185 11.625C21.0272 11.7052 20.8946 11.8276 20.8019 11.9785C20.7093 12.1293 20.6602 12.3029 20.66 12.48V13.44C20.6601 13.6235 20.7128 13.803 20.8119 13.9575L21.2506 14.6456C21.3138 14.7444 21.3945 14.8309 21.4888 14.9006L21.8769 15.1875C21.712 15.3648 21.6203 15.5979 21.62 15.84V16.32C21.62 16.5746 21.7212 16.8187 21.9012 16.9987L22.1825 17.28H21.38C21.185 17.2801 20.9947 17.3397 20.8344 17.4506L19.9625 18.0525C19.8918 18.1019 19.8281 18.1605 19.7731 18.2269L19.0831 19.0537L18.5975 19.2H17.06C16.9568 19.1998 16.8542 19.2163 16.7563 19.2487L15.6762 19.6087C15.5625 19.6469 15.4569 19.7061 15.365 19.7831L15.1569 19.9556L14.9562 19.8412L13.9288 19.0425C13.8431 18.9755 13.7468 18.9235 13.6437 18.8887L11.8438 18.2887C11.7458 18.2563 11.6432 18.2398 11.54 18.24H10.46C10.4249 18.2399 10.3899 18.2418 10.355 18.2456L8.81 18.4162C8.76704 18.4209 8.72445 18.4284 8.6825 18.4387L6.92 18.8812C6.88117 18.8907 6.84297 18.9026 6.80562 18.9169L5.91125 19.2656C5.73118 19.3358 5.5765 19.4588 5.46744 19.6184C5.35838 19.7779 5.30002 19.9667 5.3 20.16V22.44C5.29988 22.6008 5.34017 22.7591 5.41716 22.9003C5.49415 23.0415 5.60537 23.1611 5.74062 23.2481L6.03875 23.4394L6.15875 23.82C6.08852 23.8562 6.02303 23.9009 5.96375 23.9531L5.00938 24.7987C4.92311 24.8753 4.85134 24.9667 4.7975 25.0687L4.64563 25.3519L3.3725 25.9987C3.31039 26.0304 3.25192 26.0688 3.19813 26.1131L2.40313 26.7656L1.35125 26.8856C1.1169 26.9124 0.900601 27.0244 0.7436 27.2004C0.586598 27.3765 0.499885 27.6041 0.5 27.84V30.72C0.500026 30.9746 0.601176 31.2188 0.781206 31.3988C0.961235 31.5788 1.2054 31.68 1.46 31.68H26.9937L27.7831 32.4375C27.8422 32.4945 27.9084 32.5436 27.98 32.5837L28.6156 32.9381L28.9981 34.6444C29.0286 34.7799 29.0881 34.9072 29.1725 35.0175L29.8438 35.8931C29.9711 36.06 30.1495 36.1805 30.3519 36.2362L31.0512 36.4294L32.4219 37.6444C32.479 37.6948 32.542 37.7382 32.6094 37.7737L35.96 39.5456L35.2025 40.7775C35.1094 40.9292 35.06 41.1014 35.06 41.28V42C35.06 42.4166 35.3282 42.7845 35.7238 42.9131L36.4625 43.1531C36.5585 43.1838 36.6579 43.2 36.7588 43.2H38.3C38.3355 43.2 38.3704 43.1982 38.405 43.1962L41.645 42.8362C41.74 42.8247 41.8333 42.8006 41.9206 42.7631L46.4431 40.8075C46.5036 40.7806 46.5619 40.7484 46.6156 40.71L48.0931 39.6656C48.3053 39.5168 48.4484 39.2863 48.4888 39.03C48.5291 38.7737 48.4643 38.5136 48.3088 38.3062L47.9487 37.8262C47.6761 37.4624 47.185 37.3408 46.7712 37.5337L44.0019 38.8369L42.7644 39.1819L42.6387 38.9306C42.4247 38.5025 41.9294 38.2989 41.4762 38.4506L41.0225 38.6025C40.8526 38.6601 40.7036 38.7605 40.5894 38.8987L39.4081 40.32H38.3375L37.9869 39.9694L38.7162 38.9644C38.8356 38.8004 38.8999 38.6028 38.9 38.4V38.0325L40.2894 37.3387C40.4254 37.2707 40.5433 37.1713 40.6334 37.0487C40.7235 36.9262 40.7832 36.784 40.8075 36.6338C40.8319 36.4837 40.8202 36.3299 40.7735 36.1851C40.7268 36.0404 40.6463 35.9088 40.5387 35.8012L39.86 35.1225V28.2994L41.4463 25.5619C41.5138 25.4451 41.5559 25.3154 41.57 25.1812L41.7744 23.2594C41.784 23.1694 41.7808 23.0785 41.765 22.9894L40.805 17.5912C40.7705 17.398 40.6775 17.22 40.5387 17.0812L39.86 16.4025V13.7775L40.61 12.84C40.7461 12.6696 40.8202 12.458 40.82 12.24V10.2C40.8197 10.0833 40.7981 9.96767 40.7562 9.85874L39.86 7.50374V5.75999C39.86 5.50539 39.7588 5.26122 39.5788 5.0812C39.3988 4.90117 39.1546 4.80002 38.9 4.79999H31.22ZM31.37 6.71999H37.94V7.67999C37.9403 7.79667 37.9619 7.91231 38.0037 8.02124L38.9 10.3762V11.9025L38.15 12.84C38.0139 13.0103 37.9398 13.2219 37.94 13.44V16.8C37.94 17.0546 38.0412 17.2987 38.2212 17.4787L38.9675 18.225L39.8506 23.19L39.6819 24.7762L38.0694 27.5606C37.9845 27.707 37.9399 27.8733 37.94 28.0425V35.52C37.94 35.7746 38.0412 36.0187 38.2212 36.1987L38.24 36.2175L37.5106 36.5812C37.3512 36.661 37.2171 36.7836 37.1233 36.9353C37.0296 37.0869 36.98 37.2617 36.98 37.44V37.9144L33.6087 36.1312L32.1575 34.8431C32.0474 34.746 31.9166 34.6755 31.775 34.6369L31.1712 34.47L30.8263 34.0181L30.3931 32.0981C30.3638 31.9665 30.307 31.8425 30.2266 31.7343C30.1462 31.6261 30.0438 31.536 29.9262 31.47L29.0244 30.9675L28.0437 30.0281C27.8653 29.8565 27.6275 29.7605 27.38 29.76H2.42V28.6969L2.90375 28.6425C3.08775 28.621 3.26162 28.5468 3.40438 28.4287L4.33625 27.6637L5.7875 26.9269C5.96431 26.8373 6.10906 26.6951 6.20187 26.52L6.41187 26.1206L7.14313 25.4737L7.65125 25.2169C7.81008 25.137 7.94361 25.0146 8.03696 24.8633C8.13032 24.712 8.17984 24.5378 8.18 24.36V24C8.18024 23.9027 8.1657 23.806 8.13687 23.7131L7.7675 22.5337C7.70025 22.3187 7.55955 22.1342 7.37 22.0125L7.22 21.915V20.8162L7.445 20.7281L9.0875 20.3175L10.5125 20.16H11.3844L12.8806 20.6587L13.8312 21.3975C13.8669 21.4257 13.9045 21.4514 13.9437 21.4744L14.7837 21.9544C14.9539 22.0513 15.1496 22.094 15.3446 22.0765C15.5397 22.0591 15.7248 21.9825 15.875 21.8569L16.4562 21.3731L17.2156 21.12H18.74C18.8346 21.1201 18.9288 21.1062 19.0194 21.0787L19.9137 20.8069C20.0933 20.7526 20.2529 20.6471 20.3731 20.5031L21.1625 19.5581L21.68 19.2H22.58C22.729 19.2 22.876 19.1654 23.0094 19.0987L23.7294 18.7387C23.9394 18.6333 24.1036 18.4546 24.1906 18.2362L24.4306 17.6362C24.5004 17.4619 24.5175 17.2709 24.4798 17.087C24.4422 16.903 24.3514 16.7341 24.2188 16.6012L23.8156 16.1981L24.0481 16.0537C24.1863 15.9675 24.3002 15.8476 24.3793 15.7053C24.4583 15.5629 24.4999 15.4028 24.5 15.24V14.76C24.4998 14.5423 24.4257 14.3312 24.2898 14.1612C24.1538 13.9912 23.9642 13.8724 23.7519 13.8244L23.0469 13.6631L22.7731 13.4606L22.58 13.1587V13.0687L25.1994 11.7394C25.3269 11.6748 25.4383 11.5825 25.5256 11.4694L26.2288 10.5581L27.545 9.18374L28.715 8.11124L30.47 7.00874L31.37 6.71999Z" fill="#A49561"/>
</g>
<defs>
<clipPath id="clip0_323_7033">
<rect width="48" height="48" fill="white" transform="translate(0.5)"/>
</clipPath>
</defs>
</svg>
