<svg width="48" height="48" viewBox="0 0 48 48" fill="none" xmlns="http://www.w3.org/2000/svg">
<g id="Goal">
<path id="Vector" d="M23.9999 1.91998C11.8252 1.91998 1.91992 11.8253 1.91992 24C1.91992 36.1747 11.8252 46.08 23.9999 46.08C36.1746 46.08 46.0799 36.1747 46.0799 24C46.0799 19.5869 44.774 15.4747 42.5343 12.0206L41.6774 12.8775L41.1299 13.425C43.0384 16.5037 44.1599 20.1187 44.1599 24C44.1599 35.1168 35.1167 44.16 23.9999 44.16C12.8831 44.16 3.83992 35.1168 3.83992 24C3.83992 12.8832 12.8831 3.83998 23.9999 3.83998C28.7167 3.83998 33.0435 5.48873 36.4799 8.21436V10.1625L34.1418 12.5006C31.4343 10.1063 27.8897 8.63998 23.9999 8.63998C15.5308 8.63998 8.63992 15.5309 8.63992 24C8.63992 32.4691 15.5308 39.36 23.9999 39.36C32.469 39.36 39.3599 32.4691 39.3599 24C39.3599 20.8041 38.3764 17.8336 36.6993 15.3731L35.308 16.7644C36.6501 18.8562 37.4399 21.335 37.4399 24C37.4399 31.4112 31.4111 37.44 23.9999 37.44C16.5887 37.44 10.5599 31.4112 10.5599 24C10.5599 16.5888 16.5887 10.56 23.9999 10.56C27.3612 10.56 30.4272 11.8096 32.7843 13.8581L29.3793 17.2631C27.9022 16.0783 26.0366 15.36 23.9999 15.36C19.2364 15.36 15.3599 19.2365 15.3599 24C15.3599 28.7635 19.2364 32.64 23.9999 32.64C28.7634 32.64 32.6399 28.7635 32.6399 24C32.6399 22.6685 32.3282 21.4126 31.7887 20.2856L30.3243 21.7481C30.5758 22.4527 30.7199 23.2099 30.7199 24C30.7199 27.7056 27.7055 30.72 23.9999 30.72C20.2943 30.72 17.2799 27.7056 17.2799 24C17.2799 20.2944 20.2943 17.28 23.9999 17.28C25.5071 17.28 26.8945 17.785 28.0162 18.6262L24.4949 22.1475C24.3336 22.1035 24.1672 22.0808 23.9999 22.08C23.4907 22.08 23.0023 22.2823 22.6423 22.6423C22.2822 23.0024 22.0799 23.4908 22.0799 24C22.0799 24.5092 22.2822 24.9976 22.6423 25.3576C23.0023 25.7177 23.4907 25.92 23.9999 25.92C24.5091 25.92 24.9975 25.7177 25.3576 25.3576C25.7176 24.9976 25.9199 24.5092 25.9199 24C25.9198 23.8322 25.8978 23.6652 25.8543 23.5031L37.8374 11.52H40.3199L45.1199 6.71998H41.2799V2.87998L37.5618 6.59811C33.8158 3.67135 29.1113 1.91998 23.9999 1.91998Z" fill="#A49561"/>
</g>
</svg>
