<svg width="48" height="48" viewBox="0 0 48 48" fill="none" xmlns="http://www.w3.org/2000/svg">
<g id="Accounting">
<path id="Vector" d="M18.2419 0.959991C17.0006 0.959991 15.9431 1.76999 15.5419 2.87999H10.7719C10.6744 2.85374 10.5731 2.84249 10.4719 2.84999C10.4419 2.85749 10.4119 2.86874 10.3819 2.87999H4.80188C3.22313 2.87999 1.92188 4.18124 1.92188 5.75999V39.36C1.92188 40.9387 3.22313 42.24 4.80188 42.24H22.0819C22.0819 43.8187 23.3831 45.12 24.9619 45.12H42.2419C43.8206 45.12 45.1219 43.8187 45.1219 42.24V20.16C45.1219 18.5812 43.8206 17.28 42.2419 17.28H34.5619V5.75999C34.5619 4.18124 33.2606 2.87999 31.6819 2.87999H20.9419C20.5406 1.76999 19.4831 0.959991 18.2419 0.959991ZM18.2419 2.87999C18.7219 2.87999 19.0894 3.20999 19.1719 3.65999C19.1494 3.77999 19.1494 3.89999 19.1719 4.01999C19.0894 4.46999 18.7219 4.79999 18.2419 4.79999C17.7319 4.79999 17.3269 4.42874 17.2819 3.92999C17.2819 3.89999 17.2819 3.86999 17.2819 3.83999C17.2819 3.29999 17.7019 2.87999 18.2419 2.87999ZM4.80188 4.79999H9.60188V7.67999C9.60188 9.25874 10.9031 10.56 12.4819 10.56H24.0019C25.5806 10.56 26.8819 9.25874 26.8819 7.67999V4.79999H31.6819C32.2256 4.79999 32.6419 5.21624 32.6419 5.75999V17.28H24.9619C23.3831 17.28 22.0819 18.5812 22.0819 20.16V40.32H4.80188C4.25813 40.32 3.84188 39.9037 3.84188 39.36V5.75999C3.84188 5.21624 4.25813 4.79999 4.80188 4.79999ZM11.5219 4.79999H15.5419C15.9431 5.90999 17.0006 6.71999 18.2419 6.71999C19.4831 6.71999 20.5406 5.90999 20.9419 4.79999H24.9619V7.67999C24.9619 8.22374 24.5456 8.63999 24.0019 8.63999H12.4819C11.9381 8.63999 11.5219 8.22374 11.5219 7.67999V4.79999ZM12.4819 14.4V20.16H10.5619V17.28H8.64188V20.16H6.72188V22.08H20.1619V20.16H18.2419V16.32H16.3219V20.16H14.4019V14.4H12.4819ZM24.9619 19.2H42.2419C42.7856 19.2 43.2019 19.6162 43.2019 20.16V42.24C43.2019 42.7837 42.7856 43.2 42.2419 43.2H24.9619C24.4181 43.2 24.0019 42.7837 24.0019 42.24V41.46C24.0281 41.3325 24.0281 41.1975 24.0019 41.07V20.16C24.0019 19.6162 24.4181 19.2 24.9619 19.2ZM26.7019 21.12C26.2444 21.2062 25.9144 21.6112 25.9219 22.08V25.92C25.9219 26.4487 26.3531 26.88 26.8819 26.88H40.3219C40.8506 26.88 41.2819 26.4487 41.2819 25.92V22.08C41.2819 21.5512 40.8506 21.12 40.3219 21.12H26.8819C26.8519 21.12 26.8219 21.12 26.7919 21.12C26.7619 21.12 26.7319 21.12 26.7019 21.12ZM27.8419 23.04H39.3619V24.96H27.8419V23.04ZM12.4819 25.92C9.31313 25.92 6.72188 28.5112 6.72188 31.68C6.72188 34.8487 9.31313 37.44 12.4819 37.44C15.6506 37.44 18.2419 34.8487 18.2419 31.68C18.2419 28.5112 15.6506 25.92 12.4819 25.92ZM12.4819 27.84V31.68H16.3219C16.3219 33.8137 14.6156 35.52 12.4819 35.52C10.3481 35.52 8.64188 33.8137 8.64188 31.68C8.64188 29.5462 10.3481 27.84 12.4819 27.84ZM26.8819 28.8C26.3531 28.8 25.9219 29.2312 25.9219 29.76V30.72C25.9219 31.2487 26.3531 31.68 26.8819 31.68H28.8019C29.3306 31.68 29.7619 31.2487 29.7619 30.72V29.76C29.7619 29.2312 29.3306 28.8 28.8019 28.8H26.8819ZM32.6419 28.8C32.1131 28.8 31.6819 29.2312 31.6819 29.76V30.72C31.6819 31.2487 32.1131 31.68 32.6419 31.68H34.5619C35.0906 31.68 35.5219 31.2487 35.5219 30.72V29.76C35.5219 29.2312 35.0906 28.8 34.5619 28.8H32.6419ZM38.4019 28.8C37.8731 28.8 37.4419 29.2312 37.4419 29.76V30.72C37.4419 31.2487 37.8731 31.68 38.4019 31.68H40.3219C40.8506 31.68 41.2819 31.2487 41.2819 30.72V29.76C41.2819 29.2312 40.8506 28.8 40.3219 28.8H38.4019ZM26.8819 33.6C26.3531 33.6 25.9219 34.0312 25.9219 34.56V35.52C25.9219 36.0487 26.3531 36.48 26.8819 36.48H28.8019C29.3306 36.48 29.7619 36.0487 29.7619 35.52V34.56C29.7619 34.0312 29.3306 33.6 28.8019 33.6H26.8819ZM32.6419 33.6C32.1131 33.6 31.6819 34.0312 31.6819 34.56V35.52C31.6819 36.0487 32.1131 36.48 32.6419 36.48H34.5619C35.0906 36.48 35.5219 36.0487 35.5219 35.52V34.56C35.5219 34.0312 35.0906 33.6 34.5619 33.6H32.6419ZM38.4019 33.6C37.8731 33.6 37.4419 34.0312 37.4419 34.56V35.52C37.4419 36.0487 37.8731 36.48 38.4019 36.48H40.3219C40.8506 36.48 41.2819 36.0487 41.2819 35.52V34.56C41.2819 34.0312 40.8506 33.6 40.3219 33.6H38.4019ZM26.8819 38.4C26.3531 38.4 25.9219 38.8312 25.9219 39.36V40.32C25.9219 40.8487 26.3531 41.28 26.8819 41.28H28.8019C29.3306 41.28 29.7619 40.8487 29.7619 40.32V39.36C29.7619 38.8312 29.3306 38.4 28.8019 38.4H26.8819ZM32.6419 38.4C32.1131 38.4 31.6819 38.8312 31.6819 39.36V40.32C31.6819 40.8487 32.1131 41.28 32.6419 41.28H34.5619C35.0906 41.28 35.5219 40.8487 35.5219 40.32V39.36C35.5219 38.8312 35.0906 38.4 34.5619 38.4H32.6419ZM38.4019 38.4C37.8731 38.4 37.4419 38.8312 37.4419 39.36V40.32C37.4419 40.8487 37.8731 41.28 38.4019 41.28H40.3219C40.8506 41.28 41.2819 40.8487 41.2819 40.32V39.36C41.2819 38.8312 40.8506 38.4 40.3219 38.4H38.4019Z" fill="#A49561"/>
</g>
</svg>
