<svg width="48" height="48" viewBox="0 0 48 48" fill="none" xmlns="http://www.w3.org/2000/svg">
<g id="Accountant" clip-path="url(#clip0_131_4935)">
<path id="Vector" d="M24.9603 3.84C21.0061 3.84 18.1759 5.19459 16.3016 7.28062C14.4273 9.36665 13.495 12.0889 12.9435 14.8219C12.3919 17.5548 12.2214 20.3284 11.9778 22.5562C11.856 23.6702 11.7143 24.6481 11.5203 25.3837C11.3264 26.1194 11.0648 26.578 10.8847 26.7375C10.7829 26.8274 10.7014 26.938 10.6455 27.0617C10.5895 27.1855 10.5605 27.3198 10.5603 27.4556C10.5603 28.2396 11.0869 28.8702 11.6572 29.2444C12.2275 29.6185 12.9087 29.8627 13.6935 30.075C14.99 30.4257 16.6487 30.6342 18.3041 30.8419C18.2602 30.9561 18.2386 31.0776 18.2403 31.2C18.2403 31.2045 18.2422 31.2086 18.2422 31.2131C17.9006 31.8491 17.2147 32.4017 16.1385 32.9287C14.9193 33.5258 13.3271 34.0591 11.7191 34.7456C10.1111 35.4321 8.47041 36.277 7.16471 37.6012C5.85901 38.9255 4.93373 40.754 4.80221 43.1475C4.79509 43.2778 4.81459 43.4081 4.85952 43.5306C4.90444 43.653 4.97386 43.7651 5.06352 43.8598C5.15318 43.9546 5.26121 44.03 5.38102 44.0817C5.50082 44.1333 5.62989 44.1599 5.76034 44.16H27.8403V47.04C27.8404 47.2946 27.9415 47.5388 28.1215 47.7188C28.3016 47.8988 28.5457 48 28.8003 48H47.0403C47.2949 48 47.5391 47.8988 47.7191 47.7188C47.8992 47.5388 48.0003 47.2946 48.0003 47.04V26.88C48.0003 26.6254 47.8992 26.3812 47.7191 26.2012C47.5391 26.0212 47.2949 25.92 47.0403 25.92H36.966C36.7353 25.1154 36.5906 23.715 36.5422 22.05C36.4825 19.9947 36.4756 17.5597 36.1128 15.1875C35.7501 12.8153 35.0314 10.4727 33.4353 8.68125C31.9559 7.02072 29.6369 6.02693 26.571 5.87625L25.8191 4.37062C25.7393 4.21116 25.6168 4.07706 25.4651 3.98334C25.3134 3.88962 25.1386 3.83998 24.9603 3.84ZM24.4147 5.85562L25.0616 7.14937C25.1413 7.30883 25.2639 7.44293 25.4156 7.53665C25.5673 7.63037 25.742 7.68001 25.9203 7.68C28.971 7.68 30.7761 8.58121 32.0028 9.95812C33.2296 11.335 33.8822 13.2977 34.2153 15.4762C34.5485 17.6548 34.5614 20.0142 34.6222 22.1062C34.6637 23.5316 34.692 24.8149 34.9428 25.92H28.8003C28.5457 25.92 28.3016 26.0212 28.1215 26.2012C27.9415 26.3812 27.8404 26.6254 27.8403 26.88V31.2C27.8403 31.1893 27.6603 31.6146 26.961 31.9837C26.2616 32.3528 25.1958 32.64 24.0003 32.64C22.7935 32.64 21.723 32.3697 21.0303 32.0137C20.5774 31.781 20.359 31.5476 20.2522 31.3856C20.3457 30.7125 20.3516 30.3288 20.3516 30.0487C20.3519 29.8137 20.2659 29.5868 20.1101 29.4109C19.9542 29.235 19.7393 29.1224 19.506 29.0944C17.4992 28.8555 15.5526 28.5881 14.1941 28.2206C13.5148 28.0369 12.9848 27.8202 12.7091 27.6394C12.481 27.4897 12.5156 27.4871 12.5197 27.4875C12.8567 26.9916 13.2082 26.5119 13.3766 25.8731C13.6165 24.9629 13.7609 23.914 13.8866 22.7644C14.138 20.4652 14.3095 17.7615 14.826 15.2025C15.3424 12.6435 16.2037 10.2601 17.7285 8.56312C19.158 6.97212 21.2584 5.98326 24.4147 5.85562ZM29.7603 27.84H36.1335C36.2481 27.8611 36.3657 27.8611 36.4803 27.84H46.0803V46.08H29.7603V43.3612C29.7775 43.2576 29.7775 43.1518 29.7603 43.0481V27.84ZM32.6403 29.76V31.68H43.2003V29.76H32.6403ZM19.2378 33.1181C19.5128 33.3493 19.8222 33.5519 20.1528 33.7219C21.1881 34.2539 22.5192 34.56 24.0003 34.56C25.4853 34.56 26.8138 34.2261 27.8403 33.6881V42.24H6.94721C7.21129 40.8712 7.71607 39.7765 8.53159 38.9494C9.55389 37.9126 10.9608 37.1555 12.4728 36.51C13.9848 35.8645 15.5854 35.3359 16.9822 34.6519C17.8231 34.2401 18.6184 33.7554 19.2378 33.1181ZM31.6803 34.56V36.48H34.5603V34.56H31.6803ZM36.4803 34.56V36.48H39.3603V34.56H36.4803ZM41.2803 34.56V36.48H44.1603V34.56H41.2803ZM31.6803 38.4V40.32H34.5603V38.4H31.6803ZM36.4803 38.4V40.32H39.3603V38.4H36.4803ZM41.2803 38.4V40.32H44.1603V38.4H41.2803ZM31.6803 42.24V44.16H34.5603V42.24H31.6803ZM36.4803 42.24V44.16H39.3603V42.24H36.4803ZM41.2803 42.24V44.16H44.1603V42.24H41.2803Z" fill="#A49561"/>
</g>
<defs>
<clipPath id="clip0_131_4935">
<rect width="48" height="48" fill="white"/>
</clipPath>
</defs>
</svg>
