<svg width="48" height="48" viewBox="0 0 48 48" fill="none" xmlns="http://www.w3.org/2000/svg">
<g id="Businessman">
<path id="Vector" d="M25.9208 3.84002C21.162 3.84002 17.712 5.70752 15.9008 8.46002C14.1983 11.0475 14.0333 14.3363 15.1808 17.37C14.757 17.895 14.4008 18.5775 14.4908 19.65C14.4908 19.6688 14.4908 19.6913 14.4908 19.71C14.652 20.88 15.0045 21.705 15.4508 22.29C15.6683 22.575 15.9908 22.5825 16.2608 22.74C16.422 23.7788 16.7295 24.8325 17.1608 25.68C17.4045 26.16 17.6483 26.5838 17.9108 26.94C18.027 27.0975 18.1808 27.1988 18.3008 27.33C18.2895 28.1513 18.2408 28.89 18.1808 29.67H18.1508C17.982 29.6663 17.817 29.7075 17.6708 29.79C17.6708 29.79 16.0395 30.8175 14.7008 32.7C8.76453 34.0725 4.80078 38.8388 4.80078 43.2C4.80078 43.7288 5.23203 44.16 5.76078 44.16H21.7508C21.9345 44.2163 22.137 44.2163 22.3208 44.16H25.7408C25.9245 44.2163 26.127 44.2163 26.3108 44.16H42.2408C42.7695 44.16 43.2008 43.7288 43.2008 43.2C43.2008 37.9425 38.457 33.705 33.2108 32.79C32.9633 32.46 31.947 31.1363 30.5108 30.09C30.492 30.0675 30.4733 30.0488 30.4508 30.03C30.402 29.9963 30.3495 29.9738 30.3008 29.94C30.132 29.805 29.9183 29.73 29.7008 29.73C29.6445 28.92 29.622 28.1588 29.6108 27.36C29.7158 27.2325 29.8695 27.1463 29.9708 27C30.2258 26.6363 30.4883 26.19 30.7208 25.71C31.1333 24.8625 31.4558 23.865 31.6508 22.89C31.9583 22.7325 32.3108 22.7213 32.5508 22.41C33.012 21.8063 33.282 20.9475 33.3908 19.77C33.4508 19.0725 33.402 18.4425 33.1808 17.91C33.1095 17.7413 32.9895 17.5838 32.8808 17.43C33.192 16.7588 33.3908 15.99 33.4808 15.12C33.612 13.875 33.5595 12.4875 33.2108 11.13C32.862 9.77252 32.2133 8.45252 31.1708 7.44002C30.2708 6.56627 29.007 6.03002 27.5408 5.88002L26.7908 4.38002C26.6295 4.04627 26.292 3.83627 25.9208 3.84002ZM25.3508 5.82002L26.0108 7.14002C26.172 7.47377 26.5095 7.68377 26.8808 7.68002C28.2158 7.68002 29.1383 8.12627 29.8508 8.82002C30.5633 9.51377 31.0658 10.5075 31.3508 11.61C31.6358 12.7125 31.6958 13.8938 31.5908 14.91C31.4858 15.9263 31.167 16.77 30.9308 17.07C30.7395 17.3138 30.6795 17.64 30.7695 17.9363C30.8595 18.2325 31.0845 18.4688 31.3808 18.57C31.377 18.5775 31.362 18.5888 31.3808 18.63C31.4483 18.795 31.5383 19.1363 31.5008 19.59C31.4145 20.5238 31.182 21.03 31.0208 21.24C30.8595 21.45 30.777 21.42 30.8108 21.42C30.3458 21.4275 29.952 21.7688 29.8808 22.23C29.757 23.0475 29.3783 24.0563 28.9808 24.87C28.782 25.2788 28.587 25.635 28.4108 25.89C28.2345 26.145 28.047 26.3025 28.1408 26.25C27.852 26.4188 27.6683 26.7263 27.6608 27.06C27.6608 28.365 27.7545 29.1938 27.8408 30.54C27.8408 30.57 27.8408 30.6 27.8408 30.63C27.8408 30.6413 27.8408 30.6488 27.8408 30.66C27.8408 30.6788 27.8408 30.7013 27.8408 30.72C27.8408 30.8175 27.8333 30.9188 27.7808 31.02C27.7283 31.125 27.6383 31.2225 27.5108 31.35C27.2595 31.5975 26.862 31.8338 26.4308 32.04C26.0445 32.2238 25.677 32.3625 25.3808 32.46C25.332 32.475 25.2758 32.505 25.2308 32.52C25.0433 32.5763 24.8408 32.625 24.7808 32.64H23.2208C23.0595 32.5988 22.3433 32.4075 21.5708 32.04C21.1395 31.8338 20.742 31.5975 20.4908 31.35C20.2395 31.1025 20.1608 30.9113 20.1608 30.72C20.1683 30.5888 20.1458 30.4538 20.1008 30.33C20.1833 29.0888 20.2508 28.3088 20.2508 26.97C20.2545 26.625 20.0708 26.3025 19.7708 26.13C19.842 26.1713 19.6545 26.0475 19.4708 25.8C19.287 25.5525 19.0695 25.2075 18.8708 24.81C18.4695 24.0188 18.1095 23.0025 18.0308 22.17C17.9895 21.7088 17.622 21.3413 17.1608 21.3C17.1945 21.3075 17.172 21.3 17.1008 21.3C17.0633 21.2775 17.0108 21.2325 16.9508 21.15C16.782 20.9288 16.542 20.385 16.4108 19.5C16.4108 19.4813 16.4108 19.4888 16.4108 19.47C16.407 19.455 16.4145 19.455 16.4108 19.44C16.3958 18.7125 16.8458 18.3075 16.7708 18.36C17.1458 18.0975 17.2845 17.61 17.1008 17.19C15.9233 14.5275 16.092 11.6775 17.5208 9.51002C18.8783 7.44752 21.4395 5.96627 25.3508 5.82002ZM17.5208 32.31C17.6295 32.76 17.757 33.225 17.9108 33.78C18.267 35.07 18.732 36.5663 19.2008 38.01C19.782 39.7913 20.2808 41.2088 20.6408 42.24H17.7308L14.8208 38.58L16.6808 37.26C17.0108 37.035 17.1645 36.6263 17.0708 36.24L16.3808 33.63C16.7783 33.0825 17.1795 32.6288 17.5208 32.31ZM30.4208 32.55C30.9645 33.0788 31.3808 33.585 31.5908 33.84L30.9308 36.24C30.837 36.6263 30.9908 37.035 31.3208 37.26L33.1808 38.58L30.2708 42.24H27.3608C27.7208 41.2088 28.2195 39.7913 28.8008 38.01C29.2695 36.5663 29.7345 35.07 30.0908 33.78C30.2183 33.315 30.3233 32.94 30.4208 32.55ZM19.7108 33.18C20.052 33.4238 20.412 33.615 20.7608 33.78C21.2783 34.0275 21.777 34.1963 22.1708 34.32L23.0408 36.48L21.9608 40.2C21.6645 39.3375 21.372 38.4525 21.0308 37.41C20.5658 35.985 20.0858 34.5113 19.7408 33.27C19.7295 33.2363 19.7183 33.2138 19.7108 33.18ZM28.2908 33.18C28.2833 33.2138 28.272 33.2363 28.2608 33.27C27.9158 34.5113 27.4358 35.985 26.9708 37.41C26.6295 38.4525 26.337 39.3375 26.0408 40.2L24.9608 36.48L25.8308 34.32C26.2245 34.1963 26.7233 34.0275 27.2408 33.78C27.417 33.6975 27.6045 33.6113 27.7808 33.51C27.882 33.4538 27.9795 33.3938 28.0808 33.33C28.152 33.285 28.2195 33.2288 28.2908 33.18ZM14.6408 34.62L15.0308 36.09L12.8708 37.62C12.657 37.7738 12.5183 38.01 12.4845 38.2725C12.4508 38.5313 12.5258 38.7938 12.6908 39L15.2708 42.24H6.93078C7.45953 39.3225 10.2495 35.82 14.6408 34.62ZM33.3308 34.71C37.1858 35.565 40.4858 38.7 41.0408 42.24H32.7308L35.3108 39C35.4158 38.88 35.487 38.7338 35.5208 38.58C35.5245 38.5388 35.5245 38.5013 35.5208 38.46C35.5433 38.13 35.397 37.815 35.1308 37.62L32.9708 36.09L33.3308 34.71Z" fill="#A49561"/>
</g>
</svg>
