<svg width="48" height="48" viewBox="0 0 48 48" fill="none" xmlns="http://www.w3.org/2000/svg">
<g id="Flow Chart">
<path id="Vector" d="M15.36 0V11.52H23.04V21.12H5.76V33.6H0V45.12H13.44V33.6H7.68V23.04H23.04V33.6H17.28V45.12H30.72V33.6H24.96V23.04H40.32V33.6H34.56V45.12H48V33.6H42.24V21.12H24.96V11.52H32.64V0H15.36ZM17.28 1.92H30.72V9.6H24.21C24.1125 9.57375 24.0112 9.5625 23.91 9.57C23.88 9.5775 23.85 9.58875 23.82 9.6H17.28V1.92ZM1.92 35.52H11.52V43.2H1.92V35.52ZM19.2 35.52H28.8V43.2H19.2V35.52ZM36.48 35.52H46.08V43.2H36.48V35.52Z" fill="#A49561"/>
</g>
</svg>
