<svg width="48" height="48" viewBox="0 0 48 48" fill="none" xmlns="http://www.w3.org/2000/svg">
<g id="Why Quest">
<path id="Vector" d="M33.7828 0.0693972C27.5333 0.0693972 22.3303 4.48737 22.3303 10.0819C22.3303 13.2291 24.0345 15.9879 26.5828 17.8069C26.568 17.9424 26.5877 17.9556 26.5003 18.2794C26.3449 18.8552 26.0286 19.6763 25.3734 20.6063L24.389 22.005L26.099 22.0125C29.05 22.0249 30.7032 20.3249 31.1915 19.7831C32.0309 19.9538 32.8864 20.0925 33.7828 20.0925C40.0313 20.0925 45.2353 15.6747 45.2353 10.08C45.2353 4.48453 40.0313 0.0683686 33.7828 0.0693972ZM33.7828 1.85252C39.1982 1.85163 43.4503 5.60127 43.4503 10.08C43.4503 14.5577 39.1982 18.3075 33.7828 18.3075C32.8573 18.3075 31.9643 18.1966 31.1184 17.9906L30.5671 17.8575L30.2128 18.3C30.2128 18.3 29.2415 19.443 27.6365 19.9613C27.8066 19.5618 28.1376 19.0623 28.2234 18.7444C28.427 17.9899 28.4334 17.4356 28.4334 17.4356V16.9463L28.019 16.6838C25.6199 15.1627 24.1153 12.7672 24.1153 10.0819C24.1153 5.6041 28.3663 1.85252 33.7828 1.85252ZM34.2909 5.06252C32.1146 5.06252 30.921 6.32213 30.8615 8.05877H32.5828C32.6423 7.16597 33.2506 6.5944 34.1953 6.5944C35.1178 6.5944 35.7346 7.14374 35.7346 7.90502C35.7346 8.62886 35.4259 9.01811 34.5178 9.56627C33.5069 10.1596 33.0818 10.8183 33.1471 11.9175L33.1546 12.4163H34.8553V11.9981C34.8553 11.2743 35.1253 10.9004 36.0853 10.3369C37.0808 9.74266 37.6378 8.95784 37.6378 7.83752C37.6378 6.218 36.2973 5.06252 34.2909 5.06252ZM14.8809 11.52C11.446 11.52 8.64088 14.3251 8.64088 17.76C8.64088 21.1949 11.446 24 14.8809 24C18.3158 24 21.1209 21.1949 21.1209 17.76C21.1209 14.3251 18.3158 11.52 14.8809 11.52ZM14.8809 13.44C17.2781 13.44 19.2009 15.3628 19.2009 17.76C19.2009 20.1573 17.2781 22.08 14.8809 22.08C12.4836 22.08 10.5609 20.1573 10.5609 17.76C10.5609 15.3628 12.4836 13.44 14.8809 13.44ZM34.0865 13.5731C33.354 13.5731 32.8696 14.0346 32.8696 14.745C32.8696 15.4477 33.354 15.9094 34.0865 15.9094C34.8343 15.9094 35.3015 15.4477 35.3015 14.745C35.3015 14.0337 34.8334 13.5731 34.0865 13.5731ZM10.6828 25.92C7.44617 25.92 4.80088 28.5653 4.80088 31.8019V45.12C4.79908 45.2472 4.82258 45.3735 4.87002 45.4916C4.91745 45.6096 4.98788 45.7171 5.0772 45.8077C5.16653 45.8983 5.27296 45.9702 5.39033 46.0193C5.5077 46.0684 5.63365 46.0937 5.76088 46.0937C5.8881 46.0937 6.01406 46.0684 6.13142 46.0193C6.24879 45.9702 6.35523 45.8983 6.44455 45.8077C6.53387 45.7171 6.6043 45.6096 6.65174 45.4916C6.69917 45.3735 6.72268 45.2472 6.72088 45.12V31.8019C6.72088 29.603 8.48382 27.84 10.6828 27.84H18.2409H19.814C20.3664 27.84 20.8883 28.079 21.2521 28.4925L26.1065 35.1263C26.1935 35.2453 26.3068 35.3427 26.4375 35.4109C26.5683 35.4791 26.7129 35.5163 26.8604 35.5196C27.0078 35.5228 27.154 35.4921 27.2876 35.4297C27.4212 35.3674 27.5387 35.2751 27.6309 35.16L30.6065 31.44C30.9721 30.9842 31.5215 30.72 32.1046 30.72H35.2453C35.1973 30.8318 35.1781 31.0847 35.1253 31.1625C34.949 31.4218 34.7204 31.5892 34.3209 31.8094C33.5304 32.2451 32.1344 32.8038 30.9065 34.4588L27.5803 38.4431C27.1931 38.7555 26.6553 38.737 26.3015 38.3831L22.844 34.9256C22.7237 34.7678 22.5574 34.6511 22.368 34.5917C22.1786 34.5323 21.9755 34.533 21.7865 34.5938C21.7695 34.5989 21.7526 34.6046 21.7359 34.6106C21.7226 34.6154 21.7095 34.6204 21.6965 34.6256C21.6959 34.6263 21.6953 34.6269 21.6946 34.6275C21.6658 34.6399 21.6377 34.6537 21.6103 34.6688C21.6096 34.6694 21.609 34.67 21.6084 34.6706C21.4382 34.7645 21.3005 34.9077 21.2134 35.0815C21.1264 35.2552 21.0941 35.4513 21.1209 35.6438L21.119 45.12C21.1172 45.2472 21.1407 45.3735 21.1881 45.4916C21.2356 45.6096 21.306 45.7171 21.3953 45.8077C21.4847 45.8983 21.5911 45.9702 21.7085 46.0193C21.8258 46.0684 21.9518 46.0937 22.079 46.0937C22.2062 46.0937 22.3322 46.0684 22.4495 46.0193C22.5669 45.9702 22.6734 45.8983 22.7627 45.8077C22.852 45.7171 22.9224 45.6096 22.9699 45.4916C23.0173 45.3735 23.0408 45.2472 23.039 45.12L23.0409 37.8375L24.944 39.7406C26.0019 40.7985 27.7193 40.8635 28.8553 39.8906C28.8958 39.8563 28.9334 39.8187 28.9678 39.7781L32.3803 35.6906C32.3939 35.6742 32.4071 35.6573 32.4196 35.64C33.3845 34.3168 34.2469 34.0426 35.2471 33.4913C35.7472 33.2156 36.299 32.8493 36.7115 32.2425C37.124 31.6357 37.362 30.8509 37.439 29.8331C37.4491 29.7012 37.4318 29.5686 37.3882 29.4437C37.3446 29.3188 37.2756 29.2043 37.1856 29.1073C37.0957 29.0103 36.9866 28.9329 36.8654 28.88C36.7441 28.8271 36.6132 28.7999 36.4809 28.8H32.1046C30.9392 28.8 29.8353 29.3315 29.1065 30.2419L26.9146 32.9813L22.7559 27.2963C22.7393 27.2736 22.7218 27.2517 22.7034 27.2306C21.9749 26.3971 20.9204 25.92 19.814 25.92H18.2409H10.6828ZM9.58588 34.5469C9.3316 34.5509 9.08928 34.6556 8.91211 34.838C8.73494 35.0205 8.6374 35.2657 8.64088 35.52L8.639 45.12C8.6372 45.2472 8.66071 45.3735 8.70814 45.4916C8.75558 45.6096 8.82601 45.7171 8.91533 45.8077C9.00465 45.8983 9.11109 45.9702 9.22846 46.0193C9.34582 46.0684 9.47178 46.0937 9.599 46.0937C9.72623 46.0937 9.85218 46.0684 9.96955 46.0193C10.0869 45.9702 10.1934 45.8983 10.2827 45.8077C10.372 45.7171 10.4424 45.6096 10.4899 45.4916C10.5373 45.3735 10.5608 45.2472 10.559 45.12L10.5609 35.52C10.5626 35.3916 10.5386 35.2641 10.4902 35.1451C10.4418 35.0261 10.37 34.9181 10.2791 34.8273C10.1882 34.7366 10.08 34.665 9.96092 34.6168C9.84184 34.5687 9.71431 34.5449 9.58588 34.5469Z" fill="#A49561"/>
</g>
</svg>
