<svg width="48" height="48" viewBox="0 0 48 48" fill="none" xmlns="http://www.w3.org/2000/svg">
<g id="Geography">
<path id="Vector" d="M24.0019 1.91998C11.8188 1.91998 1.92188 11.8169 1.92188 24C1.92188 36.1831 11.8188 46.08 24.0019 46.08C36.185 46.08 46.0819 36.1831 46.0819 24C46.0819 11.8169 36.185 1.91998 24.0019 1.91998ZM23.0419 3.95248V12.4594H16.1719C16.5345 11.3897 16.9442 10.3953 17.3944 9.49498C18.9742 6.33528 20.9761 4.41181 23.0419 3.95248ZM24.9619 3.95248C27.0276 4.41181 29.0295 6.33528 30.6094 9.49498C31.0595 10.3953 31.4692 11.3897 31.8319 12.4594H24.9619V3.95248ZM18.4163 4.62748C17.3815 5.71393 16.4589 7.07216 15.6769 8.63623C15.0974 9.79526 14.595 11.0842 14.16 12.4594H7.47937C10.0904 8.72566 13.9263 5.91708 18.4163 4.62748ZM29.5875 4.62748C34.0775 5.91708 37.9133 8.72566 40.5244 12.4594H33.8438C33.4087 11.0842 32.9064 9.79526 32.3269 8.63623C31.5448 7.07216 30.6222 5.71393 29.5875 4.62748ZM6.255 14.4206H13.6087C12.9573 17.0495 12.579 19.9633 12.51 23.04H3.87187C4.01774 19.9303 4.85921 17.0042 6.255 14.4206ZM15.5906 14.4206H23.0419V23.04H14.4319C14.5054 19.9324 14.9111 17.0019 15.5906 14.4206ZM24.9619 14.4206H32.4131C33.0927 17.0019 33.4983 19.9324 33.5719 23.04H24.9619V14.4206ZM34.395 14.4206H41.7487C43.1445 17.0042 43.986 19.9303 44.1319 23.04H35.4937C35.4248 19.9633 35.0464 17.0495 34.395 14.4206ZM3.88125 24.96H12.5062C12.5735 28.0395 12.9571 30.9497 13.6087 33.5794H6.25688C4.86059 30.9968 4.02732 28.0695 3.88125 24.96ZM14.4262 24.96H23.0419V33.5794H15.5906C14.9108 30.997 14.4986 28.07 14.4262 24.96ZM24.9619 24.96H33.5775C33.5051 28.07 33.0929 30.997 32.4131 33.5794H24.9619V24.96ZM35.4975 24.96H44.1225C43.9764 28.0695 43.1432 30.9968 41.7469 33.5794H34.395C35.0466 30.9497 35.4302 28.0395 35.4975 24.96ZM7.485 35.5406H14.16C14.595 36.9158 15.0974 38.2047 15.6769 39.3637C16.4589 40.9278 17.3815 42.286 18.4163 43.3725C13.9278 42.0833 10.0965 39.271 7.485 35.5406ZM16.1719 35.5406H23.0419V44.0475C20.9761 43.5882 18.9742 41.6647 17.3944 38.505C16.9442 37.6046 16.5345 36.6103 16.1719 35.5406ZM24.9619 35.5406H31.8319C31.4692 36.6103 31.0595 37.6046 30.6094 38.505C29.0295 41.6647 27.0276 43.5882 24.9619 44.0475V35.5406ZM33.8438 35.5406H40.5187C37.9073 39.271 34.0759 42.0833 29.5875 43.3725C30.6222 42.286 31.5448 40.9278 32.3269 39.3637C32.9064 38.2047 33.4087 36.9158 33.8438 35.5406Z" fill="#A49561"/>
</g>
</svg>
