<svg width="48" height="48" viewBox="0 0 48 48" fill="none" xmlns="http://www.w3.org/2000/svg">
<g id="New York" clip-path="url(#clip0_131_4962)">
<path id="Vector" d="M30.72 4.79999C30.6208 4.79978 30.5221 4.81496 30.4275 4.84499L29.2687 5.21811C29.1923 5.24264 29.1192 5.27665 29.0512 5.31936L27.12 6.53249C27.0713 6.56331 27.0255 6.59845 26.9831 6.63749L25.725 7.78874C25.7102 7.80265 25.6958 7.81704 25.6819 7.83187L24.3056 9.26624C24.2824 9.2907 24.2605 9.31636 24.24 9.34312L23.6362 10.125L20.685 11.625C20.5272 11.7052 20.3946 11.8276 20.3019 11.9785C20.2093 12.1293 20.1602 12.3029 20.16 12.48V13.44C20.1601 13.6235 20.2128 13.803 20.3119 13.9575L20.7506 14.6456C20.8138 14.7444 20.8945 14.8309 20.9888 14.9006L21.3769 15.1875C21.212 15.3648 21.1203 15.5979 21.12 15.84V16.32C21.12 16.5746 21.2212 16.8187 21.4012 16.9987L21.6825 17.28H20.88C20.685 17.2801 20.4947 17.3397 20.3344 17.4506L19.4625 18.0525C19.3918 18.1019 19.3281 18.1605 19.2731 18.2269L18.5831 19.0537L18.0975 19.2H16.56C16.4568 19.1998 16.3542 19.2163 16.2563 19.2487L15.1762 19.6087C15.0625 19.6469 14.9569 19.7061 14.865 19.7831L14.6569 19.9556L14.4562 19.8412L13.4288 19.0425C13.3431 18.9755 13.2468 18.9235 13.1437 18.8887L11.3438 18.2887C11.2458 18.2563 11.1432 18.2398 11.04 18.24H9.96C9.92492 18.2399 9.88987 18.2418 9.855 18.2456L8.31 18.4162C8.26704 18.4209 8.22445 18.4284 8.1825 18.4387L6.42 18.8812C6.38117 18.8907 6.34297 18.9026 6.30562 18.9169L5.41125 19.2656C5.23118 19.3358 5.0765 19.4588 4.96744 19.6184C4.85838 19.7779 4.80002 19.9667 4.8 20.16V22.44C4.79988 22.6008 4.84017 22.7591 4.91716 22.9003C4.99415 23.0415 5.10537 23.1611 5.24062 23.2481L5.53875 23.4394L5.65875 23.82C5.58852 23.8562 5.52303 23.9009 5.46375 23.9531L4.50938 24.7987C4.42311 24.8753 4.35134 24.9667 4.2975 25.0687L4.14563 25.3519L2.8725 25.9987C2.81039 26.0304 2.75192 26.0688 2.69813 26.1131L1.90313 26.7656L0.85125 26.8856C0.616904 26.9124 0.400601 27.0244 0.2436 27.2004C0.0865979 27.3765 -0.000115161 27.6041 1.14788e-07 27.84V30.72C2.5571e-05 30.9746 0.101176 31.2188 0.281206 31.3988C0.461235 31.5788 0.7054 31.68 0.96 31.68H26.4937L27.2831 32.4375C27.3422 32.4945 27.4084 32.5436 27.48 32.5837L28.1156 32.9381L28.4981 34.6444C28.5286 34.7799 28.5881 34.9072 28.6725 35.0175L29.3438 35.8931C29.4711 36.06 29.6495 36.1805 29.8519 36.2362L30.5512 36.4294L31.9219 37.6444C31.979 37.6948 32.042 37.7382 32.1094 37.7737L35.46 39.5456L34.7025 40.7775C34.6094 40.9292 34.56 41.1014 34.56 41.28V42C34.56 42.4166 34.8282 42.7845 35.2238 42.9131L35.9625 43.1531C36.0585 43.1838 36.1579 43.2 36.2588 43.2H37.8C37.8355 43.2 37.8704 43.1982 37.905 43.1962L41.145 42.8362C41.24 42.8247 41.3333 42.8006 41.4206 42.7631L45.9431 40.8075C46.0036 40.7806 46.0619 40.7484 46.1156 40.71L47.5931 39.6656C47.8053 39.5168 47.9484 39.2863 47.9888 39.03C48.0291 38.7737 47.9643 38.5136 47.8088 38.3062L47.4487 37.8262C47.1761 37.4624 46.685 37.3408 46.2712 37.5337L43.5019 38.8369L42.2644 39.1819L42.1387 38.9306C41.9247 38.5025 41.4294 38.2989 40.9762 38.4506L40.5225 38.6025C40.3526 38.6601 40.2036 38.7605 40.0894 38.8987L38.9081 40.32H37.8375L37.4869 39.9694L38.2162 38.9644C38.3356 38.8004 38.3999 38.6028 38.4 38.4V38.0325L39.7894 37.3387C39.9254 37.2707 40.0433 37.1713 40.1334 37.0487C40.2235 36.9262 40.2832 36.784 40.3075 36.6338C40.3319 36.4837 40.3202 36.3299 40.2735 36.1851C40.2268 36.0404 40.1463 35.9088 40.0387 35.8012L39.36 35.1225V28.2994L40.9463 25.5619C41.0138 25.4451 41.0559 25.3154 41.07 25.1812L41.2744 23.2594C41.284 23.1694 41.2808 23.0785 41.265 22.9894L40.305 17.5912C40.2705 17.398 40.1775 17.22 40.0387 17.0812L39.36 16.4025V13.7775L40.11 12.84C40.2461 12.6696 40.3202 12.458 40.32 12.24V10.2C40.3197 10.0833 40.2981 9.96767 40.2562 9.85874L39.36 7.50374V5.75999C39.36 5.50539 39.2588 5.26122 39.0788 5.0812C38.8988 4.90117 38.6546 4.80002 38.4 4.79999H30.72ZM30.87 6.71999H37.44V7.67999C37.4403 7.79667 37.4619 7.91231 37.5037 8.02124L38.4 10.3762V11.9025L37.65 12.84C37.5139 13.0103 37.4398 13.2219 37.44 13.44V16.8C37.44 17.0546 37.5412 17.2987 37.7212 17.4787L38.4675 18.225L39.3506 23.19L39.1819 24.7762L37.5694 27.5606C37.4845 27.707 37.4399 27.8733 37.44 28.0425V35.52C37.44 35.7746 37.5412 36.0187 37.7212 36.1987L37.74 36.2175L37.0106 36.5812C36.8512 36.661 36.7171 36.7836 36.6233 36.9353C36.5296 37.0869 36.48 37.2617 36.48 37.44V37.9144L33.1087 36.1312L31.6575 34.8431C31.5474 34.746 31.4166 34.6755 31.275 34.6369L30.6712 34.47L30.3263 34.0181L29.8931 32.0981C29.8638 31.9665 29.807 31.8425 29.7266 31.7343C29.6462 31.6261 29.5438 31.536 29.4262 31.47L28.5244 30.9675L27.5437 30.0281C27.3653 29.8565 27.1275 29.7605 26.88 29.76H1.92V28.6969L2.40375 28.6425C2.58775 28.621 2.76162 28.5468 2.90438 28.4287L3.83625 27.6637L5.2875 26.9269C5.46431 26.8373 5.60906 26.6951 5.70187 26.52L5.91187 26.1206L6.64313 25.4737L7.15125 25.2169C7.31008 25.137 7.44361 25.0146 7.53696 24.8633C7.63032 24.712 7.67984 24.5378 7.68 24.36V24C7.68024 23.9027 7.6657 23.806 7.63687 23.7131L7.2675 22.5337C7.20025 22.3187 7.05955 22.1342 6.87 22.0125L6.72 21.915V20.8162L6.945 20.7281L8.5875 20.3175L10.0125 20.16H10.8844L12.3806 20.6587L13.3312 21.3975C13.3669 21.4257 13.4045 21.4514 13.4437 21.4744L14.2837 21.9544C14.4539 22.0513 14.6496 22.094 14.8446 22.0765C15.0397 22.0591 15.2248 21.9825 15.375 21.8569L15.9562 21.3731L16.7156 21.12H18.24C18.3346 21.1201 18.4288 21.1062 18.5194 21.0787L19.4137 20.8069C19.5933 20.7526 19.7529 20.6471 19.8731 20.5031L20.6625 19.5581L21.18 19.2H22.08C22.229 19.2 22.376 19.1654 22.5094 19.0987L23.2294 18.7387C23.4394 18.6333 23.6036 18.4546 23.6906 18.2362L23.9306 17.6362C24.0004 17.4619 24.0175 17.2709 23.9798 17.087C23.9422 16.903 23.8514 16.7341 23.7188 16.6012L23.3156 16.1981L23.5481 16.0537C23.6863 15.9675 23.8002 15.8476 23.8793 15.7053C23.9583 15.5629 23.9999 15.4028 24 15.24V14.76C23.9998 14.5423 23.9257 14.3312 23.7898 14.1612C23.6538 13.9912 23.4642 13.8724 23.2519 13.8244L22.5469 13.6631L22.2731 13.4606L22.08 13.1587V13.0687L24.6994 11.7394C24.8269 11.6748 24.9383 11.5825 25.0256 11.4694L25.7288 10.5581L27.045 9.18374L28.215 8.11124L29.97 7.00874L30.87 6.71999Z" fill="#A49561"/>
</g>
<defs>
<clipPath id="clip0_131_4962">
<rect width="48" height="48" fill="white"/>
</clipPath>
</defs>
</svg>
